<svg width="1848" height="172" viewBox="0 0 1848 172" fill="none" xmlns="http://www.w3.org/2000/svg">
<g clip-path="url(#clip0)">
<mask id="mask0" mask-type="alpha" maskUnits="userSpaceOnUse" x="6" y="6" width="160" height="160">
<path fill-rule="evenodd" clip-rule="evenodd" d="M6.69849 86C6.69849 42.203 42.1732 6.69568 85.9366 6.69568C129.697 6.69568 165.175 42.203 165.175 86C165.175 129.8 129.697 165.304 85.9366 165.304C42.1732 165.304 6.69849 129.8 6.69849 86M69.4286 85.7823C69.4286 76.7781 76.7218 69.4783 85.719 69.4783C94.7156 69.4783 102.009 76.7781 102.009 85.7823C102.009 94.787 94.7156 102.086 85.719 102.086C76.7218 102.086 69.4286 94.787 69.4286 85.7823" fill="white"/>
</mask>
<g mask="url(#mask0)">
<path opacity="0.7" fill-rule="evenodd" clip-rule="evenodd" d="M85.9214 18.3184C68.3901 18.3184 54.1781 32.5419 54.1781 50.0876C54.1781 67.6334 68.3901 81.8569 85.9214 81.8569C103.453 81.8569 117.665 67.6334 117.665 50.0876C117.665 32.5419 103.453 18.3184 85.9214 18.3184ZM44.7856 50.0876C44.7856 27.35 63.203 8.91809 85.9214 8.91809C108.64 8.91809 127.057 27.35 127.057 50.0876C127.057 72.8253 108.64 91.2572 85.9214 91.2572C63.203 91.2572 44.7856 72.8253 44.7856 50.0876Z" fill="url(#paint0_linear)"/>
<path opacity="0.7" fill-rule="evenodd" clip-rule="evenodd" d="M50.0542 54.2227C32.5224 54.2227 18.3109 68.4466 18.3109 85.9926C18.3109 103.539 32.5224 117.762 50.0542 117.762C67.5854 117.762 81.797 103.539 81.797 85.9926C81.797 68.4466 67.5854 54.2227 50.0542 54.2227ZM8.91846 85.9926C8.91846 63.2551 27.335 44.8224 50.0542 44.8224C72.7729 44.8224 91.1894 63.2551 91.1894 85.9926C91.1894 108.73 72.7729 127.163 50.0542 127.163C27.335 127.163 8.91846 108.73 8.91846 85.9926Z" fill="url(#paint1_linear)"/>
<path opacity="0.7" fill-rule="evenodd" clip-rule="evenodd" d="M85.9292 90.1206C68.3979 90.1206 54.1859 104.344 54.1859 121.89C54.1859 139.436 68.398 153.66 85.9292 153.66C103.46 153.66 117.672 139.436 117.672 121.89C117.672 104.344 103.46 90.1206 85.9292 90.1206ZM44.7935 121.89C44.7935 99.1523 63.2108 80.7203 85.9292 80.7203C108.647 80.7203 127.064 99.1523 127.064 121.89C127.064 144.628 108.647 163.06 85.9292 163.06C63.2108 163.06 44.7935 144.628 44.7935 121.89Z" fill="url(#paint2_linear)"/>
<path opacity="0.7" fill-rule="evenodd" clip-rule="evenodd" d="M121.796 54.2156C104.265 54.2156 90.0536 68.4395 90.0536 85.9849C90.0536 103.531 104.265 117.755 121.796 117.755C139.327 117.755 153.539 103.531 153.539 85.9849C153.539 68.4395 139.327 54.2156 121.796 54.2156ZM80.6611 85.9849C80.6611 63.248 99.0777 44.8153 121.796 44.8153C144.515 44.8153 162.931 63.248 162.931 85.9849C162.931 108.722 144.515 127.155 121.796 127.155C99.0777 127.155 80.6611 108.722 80.6611 85.9849Z" fill="url(#paint3_linear)"/>
<path opacity="0.7" fill-rule="evenodd" clip-rule="evenodd" d="M133.733 38.1362C121.337 25.7293 101.238 25.729 88.8416 38.1357C76.4452 50.5425 76.4455 70.6578 88.8421 83.0647C101.239 95.4716 121.337 95.4719 133.733 83.0651C146.13 70.6584 146.13 50.5431 133.733 38.1362ZM82.2002 31.4887C98.2647 15.4108 124.31 15.4114 140.375 31.4892C156.439 47.5669 156.439 73.6342 140.375 89.7121C124.31 105.79 98.265 105.789 82.2006 89.7117C66.1363 73.6339 66.1357 47.5666 82.2002 31.4887Z" fill="url(#paint4_linear)"/>
<path opacity="0.7" fill-rule="evenodd" clip-rule="evenodd" d="M83.004 38.1412C70.6072 25.734 50.5087 25.7343 38.1122 38.1412C25.7157 50.548 25.7153 70.6633 38.1122 83.0706C50.5086 95.4773 70.6071 95.477 83.0036 83.0701C95.4001 70.6632 95.4004 50.5479 83.004 38.1412ZM31.4707 31.4942C47.5351 15.4163 73.5806 15.4158 89.6455 31.4942C105.71 47.5721 105.709 73.6394 89.6451 89.7171C73.5807 105.795 47.5352 105.796 31.4707 89.7176C15.4058 73.6392 15.4063 47.572 31.4707 31.4942Z" fill="url(#paint5_linear)"/>
<path opacity="0.7" fill-rule="evenodd" clip-rule="evenodd" d="M83.0089 88.9135C70.6124 76.5066 50.5139 76.5063 38.1175 88.9131C25.7206 101.32 25.721 121.436 38.1175 133.842C50.5135 146.249 70.612 146.249 83.0089 133.842C95.4053 121.435 95.405 101.32 83.0089 88.9135ZM31.476 82.2661C47.5405 66.1881 73.586 66.1887 89.6504 82.2665C105.714 98.3439 105.715 124.411 89.6504 140.489C73.5855 156.567 47.54 156.567 31.476 140.489C15.4116 124.412 15.4111 98.3444 31.476 82.2661Z" fill="url(#paint6_linear)"/>
<path opacity="0.7" fill-rule="evenodd" clip-rule="evenodd" d="M133.738 88.9079C121.342 76.5012 101.244 76.5015 88.8475 88.9079C76.451 101.315 76.4507 121.43 88.847 133.837C101.243 146.244 121.342 146.243 133.738 133.836C146.134 121.43 146.135 101.315 133.738 88.9079ZM82.206 82.2609C98.27 66.1835 124.315 66.183 140.38 82.2609C156.444 98.3388 156.444 124.406 140.38 140.483C124.316 156.561 98.2701 156.562 82.2056 140.484C66.1411 124.406 66.1417 98.3387 82.206 82.2609Z" fill="url(#paint7_linear)"/>
<path opacity="0.7" fill-rule="evenodd" clip-rule="evenodd" d="M85.9219 46.1322C76.0649 46.1322 68.0743 54.1295 68.0743 63.9947C68.0743 73.8599 76.0649 81.8571 85.9219 81.8571C95.7788 81.8571 103.769 73.8599 103.769 63.9947C103.769 54.1295 95.7788 46.1322 85.9219 46.1322ZM58.6819 63.9947C58.6819 48.9378 70.8776 36.7319 85.9219 36.7319C100.966 36.7319 113.162 48.9378 113.162 63.9947C113.162 79.0515 100.966 91.2574 85.9219 91.2574C70.8776 91.2574 58.6819 79.0515 58.6819 63.9947Z" fill="url(#paint8_linear)"/>
<path opacity="0.7" fill-rule="evenodd" clip-rule="evenodd" d="M63.9497 68.1298C54.0927 68.1298 46.1022 76.127 46.1022 85.9922C46.1022 95.8575 54.0927 103.855 63.9497 103.855C73.8067 103.855 81.7972 95.8575 81.7972 85.9922C81.7972 76.127 73.8067 68.1298 63.9497 68.1298ZM36.7097 85.9922C36.7097 70.9354 48.9054 58.7295 63.9497 58.7295C78.994 58.7295 91.1897 70.9354 91.1897 85.9922C91.1897 101.049 78.994 113.255 63.9497 113.255C48.9054 113.255 36.7097 101.049 36.7097 85.9922Z" fill="url(#paint9_linear)"/>
<path opacity="0.7" fill-rule="evenodd" clip-rule="evenodd" d="M85.9289 90.1203C76.072 90.1203 68.0814 98.1175 68.0814 107.983C68.0814 117.848 76.072 125.845 85.9289 125.845C95.7859 125.845 103.776 117.848 103.776 107.983C103.776 98.1175 95.7859 90.1203 85.9289 90.1203ZM58.689 107.983C58.689 92.9259 70.8847 80.72 85.9289 80.72C100.973 80.72 113.169 92.9259 113.169 107.983C113.169 123.04 100.973 135.245 85.9289 135.245C70.8847 135.245 58.689 123.04 58.689 107.983Z" fill="url(#paint10_linear)"/>
<path opacity="0.7" fill-rule="evenodd" clip-rule="evenodd" d="M107.901 68.1227C98.0439 68.1227 90.0533 76.1199 90.0533 85.9852C90.0533 95.8504 98.0439 103.848 107.901 103.848C117.758 103.848 125.748 95.8504 125.748 85.9852C125.748 76.1199 117.758 68.1227 107.901 68.1227ZM80.6609 85.9852C80.6609 70.9283 92.8566 58.7224 107.901 58.7224C122.945 58.7224 135.141 70.9283 135.141 85.9852C135.141 101.042 122.945 113.248 107.901 113.248C92.8566 113.248 80.6609 101.042 80.6609 85.9852Z" fill="url(#paint11_linear)"/>
<path opacity="0.7" fill-rule="evenodd" clip-rule="evenodd" d="M114.082 57.8034C107.112 50.8276 95.8117 50.8276 88.8418 57.8034C81.8719 64.7791 81.8719 76.0889 88.8418 83.0647C95.8117 90.0404 107.112 90.0404 114.082 83.0647C121.052 76.0889 121.052 64.7791 114.082 57.8034ZM82.2003 51.1563C92.8383 40.5095 110.086 40.5095 120.723 51.1563C131.361 61.8031 131.361 79.0649 120.723 89.7117C110.086 100.358 92.8383 100.358 82.2003 89.7117C71.5624 79.0649 71.5624 61.8031 82.2003 51.1563Z" fill="url(#paint12_linear)"/>
<path opacity="0.7" fill-rule="evenodd" clip-rule="evenodd" d="M83.0037 57.8085C76.0337 50.8327 64.7334 50.8327 57.7634 57.8085C50.7935 64.7842 50.7935 76.094 57.7634 83.0698C64.7334 90.0456 76.0337 90.0456 83.0037 83.0698C89.9736 76.094 89.9736 64.7842 83.0037 57.8085ZM51.122 51.1615C61.7599 40.5147 79.0072 40.5147 89.6451 51.1615C100.283 61.8083 100.283 79.07 89.6451 89.7168C79.0072 100.364 61.7599 100.364 51.122 89.7168C40.4841 79.07 40.4841 61.8083 51.122 51.1615Z" fill="url(#paint13_linear)"/>
<path opacity="0.7" fill-rule="evenodd" clip-rule="evenodd" d="M83.0088 88.9127C76.0388 81.937 64.7385 81.937 57.7686 88.9127C50.7986 95.8885 50.7986 107.198 57.7686 114.174C64.7385 121.15 76.0388 121.15 83.0088 114.174C89.9787 107.198 89.9787 95.8885 83.0088 88.9127ZM51.1271 82.2657C61.765 71.6189 79.0123 71.6189 89.6502 82.2657C100.288 92.9125 100.288 110.174 89.6502 120.821C79.0123 131.468 61.765 131.468 51.1271 120.821C40.4892 110.174 40.4892 92.9125 51.1271 82.2657Z" fill="url(#paint14_linear)"/>
<path opacity="0.7" fill-rule="evenodd" clip-rule="evenodd" d="M114.087 88.9077C107.117 81.932 95.8166 81.932 88.8467 88.9077C81.8768 95.8835 81.8768 107.193 88.8467 114.169C95.8166 121.145 107.117 121.145 114.087 114.169C121.057 107.193 121.057 95.8835 114.087 88.9077ZM82.2052 82.2607C92.8431 71.6139 110.09 71.6139 120.728 82.2607C131.366 92.9075 131.366 110.169 120.728 120.816C110.09 131.463 92.8431 131.463 82.2052 120.816C71.5673 110.169 71.5673 92.9075 82.2052 82.2607Z" fill="url(#paint15_linear)"/>
<path opacity="0.7" fill-rule="evenodd" clip-rule="evenodd" d="M85.9219 74.0147C83.758 74.0147 82.004 75.7701 82.004 77.9359C82.004 80.1016 83.758 81.857 85.9219 81.857C88.0855 81.857 89.8398 80.1014 89.8398 77.9359C89.8398 75.7703 88.0855 74.0147 85.9219 74.0147ZM72.6116 77.9359C72.6116 70.5785 78.5707 64.6144 85.9219 64.6144C93.2723 64.6144 99.2323 70.5782 99.2323 77.9359C99.2323 85.2935 93.2723 91.2573 85.9219 91.2573C78.5707 91.2573 72.6116 85.2932 72.6116 77.9359Z" fill="url(#paint16_linear)"/>
<path opacity="0.7" fill-rule="evenodd" clip-rule="evenodd" d="M77.8794 82.071C75.7157 82.071 73.9615 83.8268 73.9615 85.9921C73.9615 88.1579 75.7155 89.9133 77.8794 89.9133C80.0434 89.9133 81.7973 88.1579 81.7973 85.9921C81.7973 83.8268 80.0432 82.071 77.8794 82.071ZM64.5691 85.9921C64.5691 78.6356 70.528 72.6707 77.8794 72.6707C85.2309 72.6707 91.1898 78.6356 91.1898 85.9921C91.1898 93.3495 85.2307 99.3136 77.8794 99.3136C70.5282 99.3136 64.5691 93.3495 64.5691 85.9921Z" fill="url(#paint17_linear)"/>
<path opacity="0.7" fill-rule="evenodd" clip-rule="evenodd" d="M85.929 90.1201C83.7655 90.1201 82.0111 91.8758 82.0111 94.0413C82.0111 96.2068 83.7655 97.9625 85.929 97.9625C88.0929 97.9625 89.8469 96.2071 89.8469 94.0413C89.8469 91.8756 88.0929 90.1201 85.929 90.1201ZM72.6187 94.0413C72.6187 86.6837 78.5786 80.7198 85.929 80.7198C93.2802 80.7198 99.2394 86.6839 99.2394 94.0413C99.2394 101.399 93.2802 107.363 85.929 107.363C78.5786 107.363 72.6187 101.399 72.6187 94.0413Z" fill="url(#paint18_linear)"/>
<path opacity="0.7" fill-rule="evenodd" clip-rule="evenodd" d="M93.9712 82.0638C91.8073 82.0638 90.0533 83.8192 90.0533 85.9849C90.0533 88.1503 91.8075 89.9061 93.9712 89.9061C96.135 89.9061 97.8891 88.1503 97.8891 85.9849C97.8891 83.8192 96.1352 82.0638 93.9712 82.0638ZM80.6609 85.9849C80.6609 78.6275 86.62 72.6635 93.9712 72.6635C101.322 72.6635 107.282 78.6275 107.282 85.9849C107.282 93.3415 101.323 99.3064 93.9712 99.3064C86.6198 99.3064 80.6609 93.3415 80.6609 85.9849Z" fill="url(#paint19_linear)"/>
<path opacity="0.7" fill-rule="evenodd" clip-rule="evenodd" d="M94.3824 77.5192C92.8523 75.9878 90.3718 75.9878 88.8417 77.5192C87.3116 79.0507 87.3116 81.5332 88.8417 83.0646C90.3715 84.5958 92.8525 84.5959 94.3824 83.0646C95.9124 81.5334 95.9123 79.0504 94.3824 77.5192ZM82.2002 70.8722C87.3983 65.6698 95.8258 65.6698 101.024 70.8722C106.221 76.0741 106.222 84.509 101.024 89.7116C95.8256 94.9143 87.3977 94.9135 82.2002 89.7116C77.0021 84.5092 77.0021 76.0747 82.2002 70.8722Z" fill="url(#paint20_linear)"/>
<path opacity="0.7" fill-rule="evenodd" clip-rule="evenodd" d="M83.0038 77.5244C81.4738 75.9931 78.9929 75.9932 77.463 77.5244C75.9329 79.0558 75.9329 81.5383 77.463 83.0697C78.9932 84.6012 81.4736 84.6012 83.0038 83.0697C84.5336 81.5386 84.5337 79.0556 83.0038 77.5244ZM70.8216 70.8773C76.0191 65.6755 84.447 65.6747 89.6452 70.8773C94.8435 76.08 94.8427 84.5149 89.6452 89.7168C84.4471 94.9192 76.0197 94.9192 70.8216 89.7168C65.6234 84.5143 65.6234 76.0798 70.8216 70.8773Z" fill="url(#paint21_linear)"/>
<path opacity="0.7" fill-rule="evenodd" clip-rule="evenodd" d="M83.0089 88.9127C81.4791 87.3815 78.9981 87.3814 77.4681 88.9127C75.9382 90.4439 75.9383 92.9269 77.4681 94.4581C78.9983 95.9895 81.4788 95.9895 83.0089 94.4581C84.539 92.9266 84.539 90.4441 83.0089 88.9127ZM70.8267 82.2657C76.025 77.063 84.4529 77.0638 89.6504 82.2657C94.8485 87.4681 94.8485 95.9026 89.6504 101.105C84.4523 106.308 76.0248 106.308 70.8267 101.105C65.6292 95.9032 65.6284 87.4683 70.8267 82.2657Z" fill="url(#paint22_linear)"/>
<path opacity="0.7" fill-rule="evenodd" clip-rule="evenodd" d="M94.3876 88.9075C92.8574 87.3761 90.3769 87.3761 88.8468 88.9075C87.317 90.4387 87.3168 92.9217 88.8468 94.4529C90.3768 95.9842 92.8577 95.9841 94.3876 94.4529C95.9177 92.9215 95.9177 90.439 94.3876 88.9075ZM82.2053 82.2605C87.4035 77.0581 95.8309 77.0581 101.029 82.2605C106.227 87.463 106.227 95.8975 101.029 101.1C95.8315 106.302 87.4036 106.303 82.2053 101.1C77.0071 95.8973 77.0078 87.4624 82.2053 82.2605Z" fill="url(#paint23_linear)"/>
</g>
<path fill-rule="evenodd" clip-rule="evenodd" d="M269.186 86.0923C269.186 101.065 266.192 109.532 259.484 114.178V114.615L270.73 114.203V122.258H233.075C206.777 122.258 197.179 113.785 197.179 86.1169C197.179 58.4492 206.758 49.1323 233.198 49.1323C259.797 49.1323 269.186 58.4308 269.186 86.0923ZM233.179 114.4C253.71 114.4 259.176 108 259.176 86.0923C259.176 64.3077 253.71 56.9846 233.179 56.9846C212.649 56.9846 207.189 64.3077 207.189 86.0923C207.189 107.982 212.655 114.382 233.198 114.382L233.179 114.4ZM321.469 90.2216H287.651V98.0739H321.469V90.2216ZM369.558 122.234C345.424 122.234 339.429 106.123 339.429 85.9938C339.429 65.8646 345.313 49.9569 370.068 49.9569H398.026V57.8092H373.271C355.219 57.8092 349.445 66.3754 349.445 85.9938C349.445 105.612 355.016 114.382 372.755 114.382H399.065V122.234H369.558ZM441.565 57.8092V122.234H451.157V57.8092H480.376V49.9569H412.371V57.8092H441.565ZM495.748 60.8984C495.748 53.1569 499.566 49.9569 506.372 49.9569H539.772C553.078 49.9569 557.308 58.4308 557.308 71.8461C557.308 85.6861 553.385 94.8738 540.91 94.8738H529.227V95.3846L558.833 122.234H546.062L518.393 96.8308C517.053 95.6 515.712 94.0492 515.712 92.2892V90.6154C515.712 88.4431 517.262 86.9969 520.016 86.9969H537.657C546.425 86.9969 547.255 80.5969 547.255 71.8215C547.255 62.8369 545.81 57.7846 536.114 57.7846H510.504C507.196 57.7846 505.346 58.8123 505.346 62.7077V122.178H495.748V60.8984ZM578.355 113.557C578.355 120.166 582.272 122.234 587.535 122.234H632.544V114.382H592.516C589.011 114.382 587.978 113.243 587.978 110.043V49.9569H578.355V113.557Z" fill="white"/>
<mask id="mask1" mask-type="alpha" maskUnits="userSpaceOnUse" x="197" y="49" width="436" height="74">
<path fill-rule="evenodd" clip-rule="evenodd" d="M269.186 86.0923C269.186 101.065 266.192 109.532 259.484 114.178V114.615L270.73 114.203V122.258H233.075C206.777 122.258 197.179 113.785 197.179 86.1169C197.179 58.4492 206.758 49.1323 233.198 49.1323C259.797 49.1323 269.186 58.4308 269.186 86.0923ZM233.179 114.4C253.71 114.4 259.176 108 259.176 86.0923C259.176 64.3077 253.71 56.9846 233.179 56.9846C212.649 56.9846 207.189 64.3077 207.189 86.0923C207.189 107.982 212.655 114.382 233.198 114.382L233.179 114.4ZM321.469 90.2216H287.651V98.0739H321.469V90.2216ZM369.558 122.234C345.424 122.234 339.429 106.123 339.429 85.9938C339.429 65.8646 345.313 49.9569 370.068 49.9569H398.026V57.8092H373.271C355.219 57.8092 349.445 66.3754 349.445 85.9938C349.445 105.612 355.016 114.382 372.755 114.382H399.065V122.234H369.558ZM441.565 57.8092V122.234H451.157V57.8092H480.376V49.9569H412.371V57.8092H441.565ZM495.748 60.8984C495.748 53.1569 499.566 49.9569 506.372 49.9569H539.772C553.078 49.9569 557.308 58.4308 557.308 71.8461C557.308 85.6861 553.385 94.8738 540.91 94.8738H529.227V95.3846L558.833 122.234H546.062L518.393 96.8308C517.053 95.6 515.712 94.0492 515.712 92.2892V90.6154C515.712 88.4431 517.262 86.9969 520.016 86.9969H537.657C546.425 86.9969 547.255 80.5969 547.255 71.8215C547.255 62.8369 545.81 57.7846 536.114 57.7846H510.504C507.196 57.7846 505.346 58.8123 505.346 62.7077V122.178H495.748V60.8984ZM578.355 113.557C578.355 120.166 582.272 122.234 587.535 122.234H632.544V114.382H592.516C589.011 114.382 587.978 113.243 587.978 110.043V49.9569H578.355V113.557Z" fill="white"/>
</mask>
<g mask="url(#mask1)">
<rect x="194.889" y="46.3478" width="439.111" height="76" fill="#250D2E"/>
</g>
<rect opacity="0.4" x="677" y="41" width="4" height="90" fill="#381E43"/>
<path d="M738.99 91.5449V120.5H732.984V49.4062H757.203C764.592 49.4062 770.419 51.2943 774.684 55.0703C778.98 58.8464 781.129 64.0384 781.129 70.6465C781.129 77.3197 779.062 82.4792 774.928 86.125C770.826 89.7383 764.869 91.5449 757.057 91.5449H738.99ZM738.99 86.4668H757.203C763.03 86.4668 767.473 85.0833 770.533 82.3164C773.593 79.5495 775.123 75.6921 775.123 70.7441C775.123 65.8288 773.593 61.9225 770.533 59.0254C767.506 56.0957 763.193 54.5983 757.594 54.5332H738.99V86.4668ZM839.002 120.5C838.416 118.84 838.042 116.382 837.879 113.127C835.828 115.796 833.208 117.863 830.018 119.328C826.86 120.76 823.507 121.477 819.959 121.477C814.881 121.477 810.763 120.061 807.605 117.229C804.48 114.396 802.918 110.816 802.918 106.486C802.918 101.343 805.05 97.2741 809.314 94.2793C813.611 91.2845 819.585 89.7871 827.234 89.7871H837.83V83.7812C837.83 80.0052 836.658 77.043 834.314 74.8945C832.003 72.7135 828.618 71.623 824.158 71.623C820.089 71.623 816.72 72.6647 814.051 74.748C811.382 76.8314 810.047 79.3379 810.047 82.2676L804.188 82.2188C804.188 78.0195 806.141 74.39 810.047 71.3301C813.953 68.2376 818.755 66.6914 824.451 66.6914C830.343 66.6914 834.982 68.1725 838.367 71.1348C841.785 74.0645 843.543 78.166 843.641 83.4395V108.439C843.641 113.55 844.178 117.375 845.252 119.914V120.5H839.002ZM820.643 116.301C824.549 116.301 828.032 115.357 831.092 113.469C834.184 111.581 836.43 109.058 837.83 105.9V94.2793H827.381C821.554 94.3444 816.997 95.4186 813.709 97.502C810.421 99.5527 808.777 102.385 808.777 105.998C808.777 108.96 809.868 111.418 812.049 113.371C814.262 115.324 817.127 116.301 820.643 116.301ZM891.797 116.545C895.866 116.545 899.268 115.406 902.002 113.127C904.769 110.816 906.266 107.837 906.494 104.191H912.109C911.947 107.414 910.938 110.36 909.082 113.029C907.227 115.666 904.753 117.733 901.66 119.23C898.6 120.728 895.312 121.477 891.797 121.477C884.863 121.477 879.362 119.068 875.293 114.25C871.257 109.432 869.238 102.954 869.238 94.8164V93.0586C869.238 87.8503 870.15 83.2441 871.973 79.2402C873.796 75.2363 876.4 72.1439 879.785 69.9629C883.203 67.7819 887.191 66.6914 891.748 66.6914C897.542 66.6914 902.311 68.4167 906.055 71.8672C909.831 75.3177 911.849 79.8587 912.109 85.4902H906.494C906.234 81.3561 904.736 78.0195 902.002 75.4805C899.3 72.9414 895.882 71.6719 891.748 71.6719C886.475 71.6719 882.373 73.5762 879.443 77.3848C876.546 81.1934 875.098 86.5319 875.098 93.4004V95.1094C875.098 101.848 876.546 107.105 879.443 110.881C882.373 114.657 886.491 116.545 891.797 116.545ZM949.377 93.8887L942.688 100.334V120.5H936.828V45.5H942.688V93.498L948.205 87.541L968.42 67.668H975.793L953.381 89.9336L977.746 120.5H970.764L949.377 93.8887ZM1032.2 120.5C1031.62 118.84 1031.24 116.382 1031.08 113.127C1029.03 115.796 1026.41 117.863 1023.22 119.328C1020.06 120.76 1016.71 121.477 1013.16 121.477C1008.08 121.477 1003.96 120.061 1000.8 117.229C997.68 114.396 996.117 110.816 996.117 106.486C996.117 101.343 998.249 97.2741 1002.51 94.2793C1006.81 91.2845 1012.78 89.7871 1020.43 89.7871H1031.03V83.7812C1031.03 80.0052 1029.86 77.043 1027.51 74.8945C1025.2 72.7135 1021.82 71.623 1017.36 71.623C1013.29 71.623 1009.92 72.6647 1007.25 74.748C1004.58 76.8314 1003.25 79.3379 1003.25 82.2676L997.387 82.2188C997.387 78.0195 999.34 74.39 1003.25 71.3301C1007.15 68.2376 1011.95 66.6914 1017.65 66.6914C1023.54 66.6914 1028.18 68.1725 1031.57 71.1348C1034.98 74.0645 1036.74 78.166 1036.84 83.4395V108.439C1036.84 113.55 1037.38 117.375 1038.45 119.914V120.5H1032.2ZM1013.84 116.301C1017.75 116.301 1021.23 115.357 1024.29 113.469C1027.38 111.581 1029.63 109.058 1031.03 105.9V94.2793H1020.58C1014.75 94.3444 1010.2 95.4186 1006.91 97.502C1003.62 99.5527 1001.98 102.385 1001.98 105.998C1001.98 108.96 1003.07 111.418 1005.25 113.371C1007.46 115.324 1010.33 116.301 1013.84 116.301ZM1063.12 93.5957C1063.12 85.3275 1064.94 78.7845 1068.59 73.9668C1072.27 69.1165 1077.25 66.6914 1083.53 66.6914C1090.73 66.6914 1096.19 69.556 1099.94 75.2852L1100.23 67.668H1105.7V119.426C1105.7 126.229 1103.79 131.617 1099.99 135.588C1096.18 139.559 1091.02 141.545 1084.51 141.545C1080.83 141.545 1077.31 140.715 1073.96 139.055C1070.64 137.427 1068.02 135.246 1066.1 132.512L1069.37 128.996C1073.51 134.074 1078.42 136.613 1084.12 136.613C1089 136.613 1092.81 135.165 1095.54 132.268C1098.28 129.403 1099.69 125.415 1099.79 120.305V113.664C1096.05 118.872 1090.6 121.477 1083.43 121.477C1077.31 121.477 1072.4 119.035 1068.69 114.152C1064.98 109.27 1063.12 102.678 1063.12 94.377V93.5957ZM1069.03 94.6211C1069.03 101.359 1070.38 106.682 1073.08 110.588C1075.78 114.462 1079.59 116.398 1084.51 116.398C1091.7 116.398 1096.8 113.176 1099.79 106.73V82.1699C1098.42 78.7845 1096.45 76.2129 1093.88 74.4551C1091.31 72.6647 1088.22 71.7695 1084.61 71.7695C1079.69 71.7695 1075.87 73.7064 1073.13 77.5801C1070.4 81.4212 1069.03 87.1016 1069.03 94.6211ZM1154.39 121.477C1149.9 121.477 1145.83 120.37 1142.19 118.156C1138.57 115.943 1135.76 112.867 1133.74 108.928C1131.72 104.956 1130.71 100.513 1130.71 95.5977V93.498C1130.71 88.4199 1131.69 83.8464 1133.64 79.7773C1135.63 75.7083 1138.38 72.5182 1141.89 70.207C1145.41 67.8633 1149.22 66.6914 1153.32 66.6914C1159.73 66.6914 1164.81 68.8887 1168.55 73.2832C1172.33 77.6452 1174.22 83.6185 1174.22 91.2031V94.4746H1136.52V95.5977C1136.52 101.587 1138.23 106.584 1141.65 110.588C1145.1 114.559 1149.43 116.545 1154.64 116.545C1157.76 116.545 1160.51 115.975 1162.89 114.836C1165.3 113.697 1167.48 111.874 1169.43 109.367L1173.09 112.15C1168.8 118.368 1162.56 121.477 1154.39 121.477ZM1153.32 71.6719C1148.92 71.6719 1145.21 73.2832 1142.19 76.5059C1139.19 79.7285 1137.37 84.0579 1136.72 89.4941H1168.41V88.8594C1168.24 83.7812 1166.79 79.6471 1164.06 76.457C1161.33 73.2669 1157.75 71.6719 1153.32 71.6719ZM1263.84 90.9102H1243.19V120.5H1237.13V49.4062H1260.23C1267.81 49.4062 1273.74 51.2454 1278 54.9238C1282.26 58.6022 1284.4 63.7454 1284.4 70.3535C1284.4 74.9108 1283.06 78.931 1280.39 82.4141C1277.72 85.8971 1274.14 88.306 1269.65 89.6406L1287.42 119.865V120.5H1281.03L1263.84 90.9102ZM1243.19 85.7832H1261.59C1266.64 85.7832 1270.69 84.3509 1273.75 81.4863C1276.81 78.6217 1278.34 74.9108 1278.34 70.3535C1278.34 65.3405 1276.75 61.4505 1273.56 58.6836C1270.37 55.9167 1265.89 54.5332 1260.13 54.5332H1243.19V85.7832ZM1332.85 121.477C1328.35 121.477 1324.28 120.37 1320.64 118.156C1317.03 115.943 1314.21 112.867 1312.19 108.928C1310.17 104.956 1309.16 100.513 1309.16 95.5977V93.498C1309.16 88.4199 1310.14 83.8464 1312.09 79.7773C1314.08 75.7083 1316.83 72.5182 1320.35 70.207C1323.86 67.8633 1327.67 66.6914 1331.77 66.6914C1338.18 66.6914 1343.26 68.8887 1347.01 73.2832C1350.78 77.6452 1352.67 83.6185 1352.67 91.2031V94.4746H1314.97V95.5977C1314.97 101.587 1316.68 106.584 1320.1 110.588C1323.55 114.559 1327.88 116.545 1333.09 116.545C1336.21 116.545 1338.97 115.975 1341.34 114.836C1343.75 113.697 1345.93 111.874 1347.88 109.367L1351.55 112.15C1347.25 118.368 1341.02 121.477 1332.85 121.477ZM1331.77 71.6719C1327.38 71.6719 1323.67 73.2832 1320.64 76.5059C1317.64 79.7285 1315.82 84.0579 1315.17 89.4941H1346.86V88.8594C1346.7 83.7812 1345.25 79.6471 1342.51 76.457C1339.78 73.2669 1336.2 71.6719 1331.77 71.6719ZM1381.25 120.5V72.4531H1372.51V67.668H1381.25V61.2715C1381.25 55.8678 1382.61 51.7174 1385.35 48.8203C1388.11 45.9232 1391.96 44.4746 1396.87 44.4746C1399.08 44.4746 1401.15 44.7513 1403.07 45.3047L1402.63 50.1875C1401.01 49.7969 1399.23 49.6016 1397.31 49.6016C1394.09 49.6016 1391.58 50.6107 1389.79 52.6289C1388 54.6146 1387.11 57.4466 1387.11 61.125V67.668H1399.7V72.4531H1387.11V120.5H1381.25ZM1442.44 121.477C1437.95 121.477 1433.88 120.37 1430.23 118.156C1426.62 115.943 1423.8 112.867 1421.79 108.928C1419.77 104.956 1418.76 100.513 1418.76 95.5977V93.498C1418.76 88.4199 1419.73 83.8464 1421.69 79.7773C1423.67 75.7083 1426.42 72.5182 1429.94 70.207C1433.46 67.8633 1437.26 66.6914 1441.37 66.6914C1447.78 66.6914 1452.86 68.8887 1456.6 73.2832C1460.38 77.6452 1462.26 83.6185 1462.26 91.2031V94.4746H1424.57V95.5977C1424.57 101.587 1426.28 106.584 1429.7 110.588C1433.15 114.559 1437.48 116.545 1442.68 116.545C1445.81 116.545 1448.56 115.975 1450.94 114.836C1453.34 113.697 1455.53 111.874 1457.48 109.367L1461.14 112.15C1456.84 118.368 1450.61 121.477 1442.44 121.477ZM1441.37 71.6719C1436.97 71.6719 1433.26 73.2832 1430.23 76.5059C1427.24 79.7285 1425.41 84.0579 1424.76 89.4941H1456.45V88.8594C1456.29 83.7812 1454.84 79.6471 1452.11 76.457C1449.37 73.2669 1445.79 71.6719 1441.37 71.6719ZM1511.05 72.6484C1509.82 72.4206 1508.5 72.3066 1507.1 72.3066C1503.45 72.3066 1500.36 73.332 1497.82 75.3828C1495.32 77.401 1493.53 80.347 1492.45 84.2207V120.5H1486.64V67.668H1492.35L1492.45 76.0664C1495.54 69.8164 1500.51 66.6914 1507.34 66.6914C1508.97 66.6914 1510.26 66.903 1511.2 67.3262L1511.05 72.6484ZM1552.81 121.477C1548.32 121.477 1544.25 120.37 1540.61 118.156C1536.99 115.943 1534.18 112.867 1532.16 108.928C1530.14 104.956 1529.13 100.513 1529.13 95.5977V93.498C1529.13 88.4199 1530.11 83.8464 1532.06 79.7773C1534.05 75.7083 1536.8 72.5182 1540.31 70.207C1543.83 67.8633 1547.64 66.6914 1551.74 66.6914C1558.15 66.6914 1563.23 68.8887 1566.97 73.2832C1570.75 77.6452 1572.64 83.6185 1572.64 91.2031V94.4746H1534.94V95.5977C1534.94 101.587 1536.65 106.584 1540.07 110.588C1543.52 114.559 1547.85 116.545 1553.06 116.545C1556.18 116.545 1558.93 115.975 1561.31 114.836C1563.72 113.697 1565.9 111.874 1567.85 109.367L1571.52 112.15C1567.22 118.368 1560.99 121.477 1552.81 121.477ZM1551.74 71.6719C1547.35 71.6719 1543.63 73.2832 1540.61 76.5059C1537.61 79.7285 1535.79 84.0579 1535.14 89.4941H1566.83V88.8594C1566.67 83.7812 1565.22 79.6471 1562.48 76.457C1559.75 73.2669 1556.17 71.6719 1551.74 71.6719ZM1602.58 67.668L1602.78 76.7012C1604.76 73.446 1607.24 70.972 1610.2 69.2793C1613.16 67.554 1616.43 66.6914 1620.01 66.6914C1625.68 66.6914 1629.89 68.2865 1632.66 71.4766C1635.43 74.6667 1636.83 79.4518 1636.86 85.832V120.5H1631.05V85.7832C1631.02 81.0632 1630.01 77.5475 1628.02 75.2363C1626.07 72.9251 1622.93 71.7695 1618.6 71.7695C1614.98 71.7695 1611.78 72.9089 1608.98 75.1875C1606.21 77.4336 1604.16 80.4772 1602.83 84.3184V120.5H1597.02V67.668H1602.58ZM1684.53 116.545C1688.6 116.545 1692 115.406 1694.73 113.127C1697.5 110.816 1699 107.837 1699.22 104.191H1704.84C1704.68 107.414 1703.67 110.36 1701.81 113.029C1699.96 115.666 1697.48 117.733 1694.39 119.23C1691.33 120.728 1688.04 121.477 1684.53 121.477C1677.59 121.477 1672.09 119.068 1668.02 114.25C1663.99 109.432 1661.97 102.954 1661.97 94.8164V93.0586C1661.97 87.8503 1662.88 83.2441 1664.7 79.2402C1666.53 75.2363 1669.13 72.1439 1672.52 69.9629C1675.93 67.7819 1679.92 66.6914 1684.48 66.6914C1690.27 66.6914 1695.04 68.4167 1698.79 71.8672C1702.56 75.3177 1704.58 79.8587 1704.84 85.4902H1699.22C1698.96 81.3561 1697.47 78.0195 1694.73 75.4805C1692.03 72.9414 1688.61 71.6719 1684.48 71.6719C1679.21 71.6719 1675.1 73.5762 1672.17 77.3848C1669.28 81.1934 1667.83 86.5319 1667.83 93.4004V95.1094C1667.83 101.848 1669.28 107.105 1672.17 110.881C1675.1 114.657 1679.22 116.545 1684.53 116.545ZM1750.02 121.477C1745.53 121.477 1741.46 120.37 1737.81 118.156C1734.2 115.943 1731.38 112.867 1729.36 108.928C1727.35 104.956 1726.34 100.513 1726.34 95.5977V93.498C1726.34 88.4199 1727.31 83.8464 1729.27 79.7773C1731.25 75.7083 1734 72.5182 1737.52 70.207C1741.03 67.8633 1744.84 66.6914 1748.94 66.6914C1755.36 66.6914 1760.43 68.8887 1764.18 73.2832C1767.95 77.6452 1769.84 83.6185 1769.84 91.2031V94.4746H1732.15V95.5977C1732.15 101.587 1733.86 106.584 1737.27 110.588C1740.72 114.559 1745.05 116.545 1750.26 116.545C1753.39 116.545 1756.14 115.975 1758.51 114.836C1760.92 113.697 1763.1 111.874 1765.06 109.367L1768.72 112.15C1764.42 118.368 1758.19 121.477 1750.02 121.477ZM1748.94 71.6719C1744.55 71.6719 1740.84 73.2832 1737.81 76.5059C1734.82 79.7285 1732.99 84.0579 1732.34 89.4941H1764.03V88.8594C1763.87 83.7812 1762.42 79.6471 1759.69 76.457C1756.95 73.2669 1753.37 71.6719 1748.94 71.6719ZM1825.86 107.072C1825.86 104.175 1824.69 101.848 1822.34 100.09C1820.03 98.332 1816.53 96.9648 1811.85 95.9883C1807.16 94.9792 1803.51 93.8398 1800.91 92.5703C1798.34 91.2682 1796.42 89.6895 1795.15 87.834C1793.91 85.9785 1793.29 83.7324 1793.29 81.0957C1793.29 76.929 1795.03 73.4948 1798.52 70.793C1802 68.0586 1806.46 66.6914 1811.89 66.6914C1817.79 66.6914 1822.51 68.1562 1826.05 71.0859C1829.64 73.9831 1831.43 77.7754 1831.43 82.4629H1825.57C1825.57 79.3704 1824.26 76.7988 1821.66 74.748C1819.09 72.6973 1815.83 71.6719 1811.89 71.6719C1808.05 71.6719 1804.96 72.5345 1802.62 74.2598C1800.31 75.9525 1799.15 78.166 1799.15 80.9004C1799.15 83.5371 1800.11 85.5879 1802.03 87.0527C1803.98 88.485 1807.52 89.8034 1812.63 91.0078C1817.77 92.2122 1821.61 93.498 1824.15 94.8652C1826.72 96.2324 1828.63 97.8763 1829.86 99.7969C1831.1 101.717 1831.72 104.045 1831.72 106.779C1831.72 111.239 1829.91 114.803 1826.3 117.473C1822.72 120.142 1818.03 121.477 1812.24 121.477C1806.08 121.477 1801.09 119.995 1797.25 117.033C1793.44 114.038 1791.53 110.262 1791.53 105.705H1797.39C1797.62 109.123 1799.05 111.792 1801.69 113.713C1804.36 115.601 1807.87 116.545 1812.24 116.545C1816.31 116.545 1819.59 115.65 1822.1 113.859C1824.61 112.069 1825.86 109.807 1825.86 107.072Z" fill="#381E43"/>
<path d="M738.99 91.5449V91.0449H738.49V91.5449H738.99ZM738.99 120.5V121H739.49V120.5H738.99ZM732.984 120.5H732.484V121H732.984V120.5ZM732.984 49.4062V48.9062H732.484V49.4062H732.984ZM774.684 55.0703L774.352 55.4446L774.354 55.4459L774.684 55.0703ZM774.928 86.125L775.258 86.5002L775.258 86.5L774.928 86.125ZM738.99 86.4668H738.49V86.9668H738.99V86.4668ZM770.533 59.0254L770.185 59.3847L770.189 59.3885L770.533 59.0254ZM757.594 54.5332L757.6 54.0332H757.594V54.5332ZM738.99 54.5332V54.0332H738.49V54.5332H738.99ZM738.49 91.5449V120.5H739.49V91.5449H738.49ZM738.99 120H732.984V121H738.99V120ZM733.484 120.5V49.4062H732.484V120.5H733.484ZM732.984 49.9062H757.203V48.9062H732.984V49.9062ZM757.203 49.9062C764.508 49.9062 770.204 51.7712 774.352 55.4446L775.015 54.696C770.635 50.8173 764.677 48.9062 757.203 48.9062V49.9062ZM774.354 55.4459C778.525 59.1118 780.629 64.1575 780.629 70.6465H781.629C781.629 63.9193 779.436 58.5809 775.014 54.6947L774.354 55.4459ZM780.629 70.6465C780.629 77.2091 778.601 82.2189 774.597 85.75L775.258 86.5C779.523 82.7395 781.629 77.4302 781.629 70.6465H780.629ZM774.597 85.7498C770.619 89.2541 764.799 91.0449 757.057 91.0449V92.0449C764.939 92.0449 771.033 90.2225 775.258 86.5002L774.597 85.7498ZM757.057 91.0449H738.99V92.0449H757.057V91.0449ZM738.99 86.9668H757.203V85.9668H738.99V86.9668ZM757.203 86.9668C763.103 86.9668 767.685 85.5661 770.869 82.6873L770.198 81.9455C767.262 84.6006 762.957 85.9668 757.203 85.9668V86.9668ZM770.869 82.6873C774.054 79.8068 775.623 75.8027 775.623 70.7441H774.623C774.623 75.5814 773.132 79.2922 770.198 81.9455L770.869 82.6873ZM775.623 70.7441C775.623 65.7163 774.053 61.6697 770.877 58.6623L770.189 59.3885C773.133 62.1753 774.623 65.9412 774.623 70.7441H775.623ZM770.881 58.6661C767.735 55.6215 763.283 54.0993 757.6 54.0332L757.588 55.0332C763.102 55.0973 767.277 56.5699 770.185 59.3847L770.881 58.6661ZM757.594 54.0332H738.99V55.0332H757.594V54.0332ZM738.49 54.5332V86.4668H739.49V54.5332H738.49ZM839.002 120.5L838.53 120.666L838.648 121H839.002V120.5ZM837.879 113.127L838.378 113.102L838.31 111.745L837.482 112.822L837.879 113.127ZM830.018 119.328L830.224 119.783L830.226 119.783L830.018 119.328ZM807.605 117.229L807.27 117.599L807.272 117.601L807.605 117.229ZM809.314 94.2793L809.029 93.8691L809.027 93.8701L809.314 94.2793ZM837.83 89.7871V90.2871H838.33V89.7871H837.83ZM834.314 74.8945L833.971 75.2582L833.977 75.2631L834.314 74.8945ZM814.051 74.748L813.743 74.3539L814.051 74.748ZM810.047 82.2676L810.043 82.7676L810.547 82.7718V82.2676H810.047ZM804.188 82.2188H803.688V82.7146L804.183 82.7187L804.188 82.2188ZM810.047 71.3301L810.355 71.7237L810.357 71.7221L810.047 71.3301ZM838.367 71.1348L838.038 71.5111L838.042 71.5144L838.367 71.1348ZM843.641 83.4395H844.141L844.141 83.4302L843.641 83.4395ZM845.252 119.914H845.752V119.813L845.712 119.719L845.252 119.914ZM845.252 120.5V121H845.752V120.5H845.252ZM831.092 113.469L830.831 113.042L830.829 113.043L831.092 113.469ZM837.83 105.9L838.287 106.103L838.33 106.006V105.9H837.83ZM837.83 94.2793H838.33V93.7793H837.83V94.2793ZM827.381 94.2793V93.7793L827.375 93.7793L827.381 94.2793ZM813.709 97.502L813.974 97.9262L813.977 97.9243L813.709 97.502ZM812.049 113.371L811.715 113.744L811.718 113.746L812.049 113.371ZM839.473 120.334C838.912 118.742 838.54 116.343 838.378 113.102L837.38 113.152C837.543 116.422 837.92 118.937 838.53 120.666L839.473 120.334ZM837.482 112.822C835.483 115.424 832.928 117.441 829.809 118.874L830.226 119.783C833.487 118.285 836.173 116.168 838.275 113.432L837.482 112.822ZM829.811 118.873C826.72 120.275 823.438 120.977 819.959 120.977V121.977C823.577 121.977 827 121.246 830.224 119.783L829.811 118.873ZM819.959 120.977C814.978 120.977 810.988 119.59 807.939 116.856L807.272 117.601C810.538 120.531 814.783 121.977 819.959 121.977V120.977ZM807.941 116.858C804.924 114.124 803.418 110.679 803.418 106.486H802.418C802.418 110.953 804.037 114.669 807.27 117.599L807.941 116.858ZM803.418 106.486C803.418 101.509 805.469 97.5911 809.602 94.6885L809.027 93.8701C804.632 96.9571 802.418 101.178 802.418 106.486H803.418ZM809.6 94.6895C813.783 91.7744 819.642 90.2871 827.234 90.2871V89.2871C819.527 89.2871 813.44 90.7946 809.029 93.8691L809.6 94.6895ZM827.234 90.2871H837.83V89.2871H827.234V90.2871ZM838.33 89.7871V83.7812H837.33V89.7871H838.33ZM838.33 83.7812C838.33 79.8937 837.119 76.7869 834.652 74.526L833.977 75.2631C836.198 77.2991 837.33 80.1167 837.33 83.7812H838.33ZM834.658 74.5309C832.222 72.2323 828.694 71.123 824.158 71.123V72.123C828.542 72.123 831.785 73.1948 833.971 75.2582L834.658 74.5309ZM824.158 71.123C820.001 71.123 816.517 72.1889 813.743 74.3539L814.358 75.1422C816.923 73.1405 820.177 72.123 824.158 72.123V71.123ZM813.743 74.3539C810.974 76.5153 809.547 79.1587 809.547 82.2676H810.547C810.547 79.5171 811.789 77.1475 814.358 75.1422L813.743 74.3539ZM810.051 81.7676L804.192 81.7188L804.183 82.7187L810.043 82.7676L810.051 81.7676ZM804.688 82.2188C804.688 78.202 806.545 74.7081 810.355 71.7237L809.739 70.9365C805.736 74.0718 803.688 77.8371 803.688 82.2188H804.688ZM810.357 71.7221C814.163 68.7094 818.85 67.1914 824.451 67.1914V66.1914C818.659 66.1914 813.744 67.7658 809.737 70.9381L810.357 71.7221ZM824.451 67.1914C830.26 67.1914 834.769 68.6506 838.038 71.5111L838.696 70.7585C835.195 67.6945 830.426 66.1914 824.451 66.1914V67.1914ZM838.042 71.5144C841.333 74.335 843.045 78.2911 843.141 83.4487L844.141 83.4302C844.041 78.041 842.238 73.7939 838.693 70.7551L838.042 71.5144ZM843.141 83.4395V108.439H844.141V83.4395H843.141ZM843.141 108.439C843.141 113.57 843.678 117.476 844.791 120.109L845.712 119.719C844.678 117.274 844.141 113.531 844.141 108.439H843.141ZM844.752 119.914V120.5H845.752V119.914H844.752ZM845.252 120H839.002V121H845.252V120ZM820.643 116.801C824.633 116.801 828.209 115.835 831.354 113.894L830.829 113.043C827.855 114.878 824.464 115.801 820.643 115.801V116.801ZM831.352 113.896C834.527 111.957 836.844 109.358 838.287 106.103L837.373 105.698C836.017 108.758 833.841 111.204 830.831 113.042L831.352 113.896ZM838.33 105.9V94.2793H837.33V105.9H838.33ZM837.83 93.7793H827.381V94.7793H837.83V93.7793ZM827.375 93.7793C821.499 93.845 816.837 94.9277 813.441 97.0796L813.977 97.9243C817.156 95.9095 821.609 94.8438 827.386 94.7793L827.375 93.7793ZM813.444 97.0777C810.023 99.2119 808.277 102.198 808.277 105.998H809.277C809.277 102.572 810.819 99.8936 813.974 97.9262L813.444 97.0777ZM808.277 105.998C808.277 109.101 809.427 111.694 811.715 113.744L812.382 112.999C810.309 111.142 809.277 108.82 809.277 105.998H808.277ZM811.718 113.746C814.04 115.795 817.03 116.801 820.643 116.801V115.801C817.224 115.801 814.485 114.854 812.38 112.996L811.718 113.746ZM902.002 113.127L902.322 113.511L902.322 113.511L902.002 113.127ZM906.494 104.191V103.691H906.024L905.995 104.16L906.494 104.191ZM912.109 104.191L912.609 104.217L912.635 103.691H912.109V104.191ZM909.082 113.029L909.491 113.317L909.493 113.315L909.082 113.029ZM901.66 119.23L901.442 118.78L901.44 118.781L901.66 119.23ZM875.293 114.25L874.91 114.571L874.911 114.573L875.293 114.25ZM871.973 79.2402L871.518 79.0331L871.973 79.2402ZM879.785 69.9629L879.516 69.5414L879.514 69.5426L879.785 69.9629ZM906.055 71.8672L905.716 72.2348L905.717 72.2363L906.055 71.8672ZM912.109 85.4902V85.9902H912.633L912.609 85.4671L912.109 85.4902ZM906.494 85.4902L905.995 85.5217L906.025 85.9902H906.494V85.4902ZM902.002 75.4805L901.66 75.8448L901.662 75.8469L902.002 75.4805ZM879.443 77.3848L879.047 77.0799L879.045 77.0821L879.443 77.3848ZM879.443 110.881L879.047 111.185L879.048 111.187L879.443 110.881ZM891.797 117.045C895.965 117.045 899.485 115.875 902.322 113.511L901.682 112.743C899.05 114.936 895.767 116.045 891.797 116.045V117.045ZM902.322 113.511C905.196 111.11 906.757 108.003 906.993 104.223L905.995 104.16C905.776 107.671 904.341 110.521 901.681 112.743L902.322 113.511ZM906.494 104.691H912.109V103.691H906.494V104.691ZM911.61 104.166C911.452 107.295 910.474 110.151 908.671 112.744L909.493 113.315C911.401 110.569 912.441 107.533 912.609 104.217L911.61 104.166ZM908.673 112.742C906.87 115.304 904.463 117.318 901.442 118.78L901.878 119.68C905.042 118.149 907.583 116.028 909.491 113.317L908.673 112.742ZM901.44 118.781C898.451 120.244 895.239 120.977 891.797 120.977V121.977C895.386 121.977 898.749 121.212 901.88 119.68L901.44 118.781ZM891.797 120.977C884.994 120.977 879.639 118.621 875.675 113.927L874.911 114.573C879.085 119.515 884.733 121.977 891.797 121.977V120.977ZM875.676 113.929C871.735 109.225 869.738 102.872 869.738 94.8164H868.738C868.738 103.037 870.778 109.64 874.91 114.571L875.676 113.929ZM869.738 94.8164V93.0586H868.738V94.8164H869.738ZM869.738 93.0586C869.738 87.9088 870.639 83.3754 872.428 79.4474L871.518 79.0331C869.66 83.1129 868.738 87.7918 868.738 93.0586H869.738ZM872.428 79.4474C874.215 75.5224 876.759 72.5075 880.056 70.3832L879.514 69.5426C876.041 71.7802 873.376 74.9503 871.518 79.0331L872.428 79.4474ZM880.054 70.3844C883.382 68.2608 887.274 67.1914 891.748 67.1914V66.1914C887.108 66.1914 883.024 67.303 879.516 69.5414L880.054 70.3844ZM891.748 67.1914C897.435 67.1914 902.077 68.8813 905.716 72.2348L906.394 71.4995C902.545 67.9521 897.649 66.1914 891.748 66.1914V67.1914ZM905.717 72.2363C909.385 75.588 911.355 79.9993 911.61 85.5133L912.609 85.4671C912.343 79.7182 910.276 75.0475 906.392 71.4981L905.717 72.2363ZM912.109 84.9902H906.494V85.9902H912.109V84.9902ZM906.993 85.4588C906.726 81.2121 905.181 77.7502 902.342 75.1141L901.662 75.8469C904.292 78.2888 905.742 81.5001 905.995 85.5217L906.993 85.4588ZM902.344 75.1161C899.539 72.4796 895.994 71.1719 891.748 71.1719V72.1719C895.771 72.1719 899.061 73.4032 901.66 75.8448L902.344 75.1161ZM891.748 71.1719C886.337 71.1719 882.082 73.1351 879.047 77.0799L879.84 77.6896C882.665 74.0172 886.612 72.1719 891.748 72.1719V71.1719ZM879.045 77.0821C876.059 81.0084 874.598 86.4687 874.598 93.4004H875.598C875.598 86.5952 877.034 81.3784 879.841 77.6875L879.045 77.0821ZM874.598 93.4004V95.1094H875.598V93.4004H874.598ZM874.598 95.1094C874.598 101.913 876.06 107.292 879.047 111.185L879.84 110.577C877.033 106.918 875.598 101.782 875.598 95.1094H874.598ZM879.048 111.187C882.084 115.1 886.356 117.045 891.797 117.045V116.045C886.626 116.045 882.662 114.214 879.838 110.574L879.048 111.187ZM949.377 93.8887L949.767 93.5755L949.424 93.149L949.03 93.5286L949.377 93.8887ZM942.688 100.334L942.341 99.9739L942.188 100.121V100.334H942.688ZM942.688 120.5V121H943.188V120.5H942.688ZM936.828 120.5H936.328V121H936.828V120.5ZM936.828 45.5V45H936.328V45.5H936.828ZM942.688 45.5H943.188V45H942.688V45.5ZM942.688 93.498H942.188V94.7737L943.054 93.8378L942.688 93.498ZM948.205 87.541L947.855 87.1845L947.846 87.1927L947.838 87.2013L948.205 87.541ZM968.42 67.668V67.168H968.215L968.069 67.3114L968.42 67.668ZM975.793 67.668L976.145 68.0227L977.006 67.168H975.793V67.668ZM953.381 89.9336L953.028 89.5789L952.71 89.8948L952.99 90.2453L953.381 89.9336ZM977.746 120.5V121H978.784L978.137 120.188L977.746 120.5ZM970.764 120.5L970.374 120.813L970.524 121H970.764V120.5ZM949.03 93.5286L942.341 99.9739L943.034 100.694L949.724 94.2487L949.03 93.5286ZM942.188 100.334V120.5H943.188V100.334H942.188ZM942.688 120H936.828V121H942.688V120ZM937.328 120.5V45.5H936.328V120.5H937.328ZM936.828 46H942.688V45H936.828V46ZM942.188 45.5V93.498H943.188V45.5H942.188ZM943.054 93.8378L948.572 87.8808L947.838 87.2013L942.321 93.1583L943.054 93.8378ZM948.556 87.8976L968.77 68.0245L968.069 67.3114L947.855 87.1845L948.556 87.8976ZM968.42 68.168H975.793V67.168H968.42V68.168ZM975.441 67.3133L953.028 89.5789L953.733 90.2883L976.145 68.0227L975.441 67.3133ZM952.99 90.2453L977.355 120.812L978.137 120.188L953.772 89.6219L952.99 90.2453ZM977.746 120H970.764V121H977.746V120ZM971.153 120.187L949.767 93.5755L948.987 94.2019L970.374 120.813L971.153 120.187ZM1032.2 120.5L1031.73 120.666L1031.85 121H1032.2V120.5ZM1031.08 113.127L1031.58 113.102L1031.51 111.745L1030.68 112.822L1031.08 113.127ZM1023.22 119.328L1023.42 119.783L1023.43 119.783L1023.22 119.328ZM1000.8 117.229L1000.47 117.599L1000.47 117.601L1000.8 117.229ZM1002.51 94.2793L1002.23 93.8691L1002.23 93.8701L1002.51 94.2793ZM1031.03 89.7871V90.2871H1031.53V89.7871H1031.03ZM1027.51 74.8945L1027.17 75.2582L1027.18 75.2631L1027.51 74.8945ZM1007.25 74.748L1006.94 74.3539L1007.25 74.748ZM1003.25 82.2676L1003.24 82.7676L1003.75 82.7718V82.2676H1003.25ZM997.387 82.2188H996.887V82.7146L997.383 82.7187L997.387 82.2188ZM1003.25 71.3301L1003.55 71.7237L1003.56 71.7221L1003.25 71.3301ZM1031.57 71.1348L1031.24 71.5111L1031.24 71.5144L1031.57 71.1348ZM1036.84 83.4395H1037.34L1037.34 83.4302L1036.84 83.4395ZM1038.45 119.914H1038.95V119.813L1038.91 119.719L1038.45 119.914ZM1038.45 120.5V121H1038.95V120.5H1038.45ZM1024.29 113.469L1024.03 113.042L1024.03 113.043L1024.29 113.469ZM1031.03 105.9L1031.49 106.103L1031.53 106.006V105.9H1031.03ZM1031.03 94.2793H1031.53V93.7793H1031.03V94.2793ZM1020.58 94.2793V93.7793L1020.57 93.7793L1020.58 94.2793ZM1006.91 97.502L1007.17 97.9262L1007.18 97.9243L1006.91 97.502ZM1005.25 113.371L1004.91 113.744L1004.92 113.746L1005.25 113.371ZM1032.67 120.334C1032.11 118.742 1031.74 116.343 1031.58 113.102L1030.58 113.152C1030.74 116.422 1031.12 118.937 1031.73 120.666L1032.67 120.334ZM1030.68 112.822C1028.68 115.424 1026.13 117.441 1023.01 118.874L1023.43 119.783C1026.69 118.285 1029.37 116.168 1031.47 113.432L1030.68 112.822ZM1023.01 118.873C1019.92 120.275 1016.64 120.977 1013.16 120.977V121.977C1016.78 121.977 1020.2 121.246 1023.42 119.783L1023.01 118.873ZM1013.16 120.977C1008.18 120.977 1004.19 119.59 1001.14 116.856L1000.47 117.601C1003.74 120.531 1007.98 121.977 1013.16 121.977V120.977ZM1001.14 116.858C998.123 114.124 996.617 110.679 996.617 106.486H995.617C995.617 110.953 997.236 114.669 1000.47 117.599L1001.14 116.858ZM996.617 106.486C996.617 101.509 998.668 97.5911 1002.8 94.6885L1002.23 93.8701C997.831 96.9571 995.617 101.178 995.617 106.486H996.617ZM1002.8 94.6895C1006.98 91.7744 1012.84 90.2871 1020.43 90.2871V89.2871C1012.73 89.2871 1006.64 90.7946 1002.23 93.8691L1002.8 94.6895ZM1020.43 90.2871H1031.03V89.2871H1020.43V90.2871ZM1031.53 89.7871V83.7812H1030.53V89.7871H1031.53ZM1031.53 83.7812C1031.53 79.8937 1030.32 76.7869 1027.85 74.526L1027.18 75.2631C1029.4 77.2991 1030.53 80.1167 1030.53 83.7812H1031.53ZM1027.86 74.5309C1025.42 72.2323 1021.89 71.123 1017.36 71.123V72.123C1021.74 72.123 1024.98 73.1948 1027.17 75.2582L1027.86 74.5309ZM1017.36 71.123C1013.2 71.123 1009.72 72.1889 1006.94 74.3539L1007.56 75.1422C1010.12 73.1405 1013.38 72.123 1017.36 72.123V71.123ZM1006.94 74.3539C1004.17 76.5153 1002.75 79.1587 1002.75 82.2676H1003.75C1003.75 79.5171 1004.99 77.1475 1007.56 75.1422L1006.94 74.3539ZM1003.25 81.7676L997.391 81.7188L997.383 82.7187L1003.24 82.7676L1003.25 81.7676ZM997.887 82.2188C997.887 78.202 999.745 74.7081 1003.55 71.7237L1002.94 70.9365C998.935 74.0718 996.887 77.8371 996.887 82.2188H997.887ZM1003.56 71.7221C1007.36 68.7094 1012.05 67.1914 1017.65 67.1914V66.1914C1011.86 66.1914 1006.94 67.7658 1002.94 70.9381L1003.56 71.7221ZM1017.65 67.1914C1023.46 67.1914 1027.97 68.6506 1031.24 71.5111L1031.9 70.7585C1028.39 67.6945 1023.63 66.1914 1017.65 66.1914V67.1914ZM1031.24 71.5144C1034.53 74.335 1036.24 78.2911 1036.34 83.4487L1037.34 83.4302C1037.24 78.041 1035.44 73.7939 1031.89 70.7551L1031.24 71.5144ZM1036.34 83.4395V108.439H1037.34V83.4395H1036.34ZM1036.34 108.439C1036.34 113.57 1036.88 117.476 1037.99 120.109L1038.91 119.719C1037.88 117.274 1037.34 113.531 1037.34 108.439H1036.34ZM1037.95 119.914V120.5H1038.95V119.914H1037.95ZM1038.45 120H1032.2V121H1038.45V120ZM1013.84 116.801C1017.83 116.801 1021.41 115.835 1024.55 113.894L1024.03 113.043C1021.05 114.878 1017.66 115.801 1013.84 115.801V116.801ZM1024.55 113.896C1027.73 111.957 1030.04 109.358 1031.49 106.103L1030.57 105.698C1029.22 108.758 1027.04 111.204 1024.03 113.042L1024.55 113.896ZM1031.53 105.9V94.2793H1030.53V105.9H1031.53ZM1031.03 93.7793H1020.58V94.7793H1031.03V93.7793ZM1020.57 93.7793C1014.7 93.845 1010.04 94.9277 1006.64 97.0796L1007.18 97.9243C1010.36 95.9095 1014.81 94.8438 1020.59 94.7793L1020.57 93.7793ZM1006.64 97.0777C1003.22 99.2119 1001.48 102.198 1001.48 105.998H1002.48C1002.48 102.572 1004.02 99.8936 1007.17 97.9262L1006.64 97.0777ZM1001.48 105.998C1001.48 109.101 1002.63 111.694 1004.91 113.744L1005.58 112.999C1003.51 111.142 1002.48 108.82 1002.48 105.998H1001.48ZM1004.92 113.746C1007.24 115.795 1010.23 116.801 1013.84 116.801V115.801C1010.42 115.801 1007.68 114.854 1005.58 112.996L1004.92 113.746ZM1068.59 73.9668L1068.19 73.6647L1068.19 73.6651L1068.59 73.9668ZM1099.94 75.2852L1099.52 75.5587L1100.38 76.8716L1100.44 75.3044L1099.94 75.2852ZM1100.23 67.668V67.168H1099.75L1099.73 67.6488L1100.23 67.668ZM1105.7 67.668H1106.2V67.168H1105.7V67.668ZM1099.99 135.588L1100.35 135.934L1099.99 135.588ZM1073.96 139.055L1074.18 138.607L1074.18 138.606L1073.96 139.055ZM1066.1 132.512L1065.73 132.171L1065.46 132.468L1065.69 132.799L1066.1 132.512ZM1069.37 128.996L1069.76 128.68L1069.4 128.235L1069.01 128.655L1069.37 128.996ZM1095.54 132.268L1095.18 131.922L1095.18 131.924L1095.54 132.268ZM1099.79 120.305L1100.29 120.314V120.305H1099.79ZM1099.79 113.664H1100.29V112.112L1099.39 113.372L1099.79 113.664ZM1073.08 110.588L1072.67 110.872L1072.67 110.874L1073.08 110.588ZM1099.79 106.73L1100.24 106.941L1100.29 106.841V106.73H1099.79ZM1099.79 82.1699H1100.29V82.0728L1100.25 81.9827L1099.79 82.1699ZM1093.88 74.4551L1093.6 74.8654L1093.6 74.8679L1093.88 74.4551ZM1073.13 77.5801L1073.54 77.87L1073.54 77.8684L1073.13 77.5801ZM1063.62 93.5957C1063.62 85.3969 1065.43 78.9724 1068.99 74.2685L1068.19 73.6651C1064.46 78.5966 1062.62 85.2581 1062.62 93.5957H1063.62ZM1068.99 74.2689C1072.57 69.5479 1077.4 67.1914 1083.53 67.1914V66.1914C1077.1 66.1914 1071.97 68.6851 1068.19 73.6647L1068.99 74.2689ZM1083.53 67.1914C1090.57 67.1914 1095.87 69.9793 1099.52 75.5587L1100.36 75.0117C1096.51 69.1327 1090.88 66.1914 1083.53 66.1914V67.1914ZM1100.44 75.3044L1100.73 67.6872L1099.73 67.6488L1099.44 75.2659L1100.44 75.3044ZM1100.23 68.168H1105.7V67.168H1100.23V68.168ZM1105.2 67.668V119.426H1106.2V67.668H1105.2ZM1105.2 119.426C1105.2 126.132 1103.32 131.384 1099.63 135.242L1100.35 135.934C1104.27 131.849 1106.2 126.326 1106.2 119.426H1105.2ZM1099.63 135.242C1095.93 139.097 1090.91 141.045 1084.51 141.045V142.045C1091.13 142.045 1096.43 140.022 1100.35 135.934L1099.63 135.242ZM1084.51 141.045C1080.91 141.045 1077.47 140.233 1074.18 138.607L1073.74 139.503C1077.16 141.196 1080.75 142.045 1084.51 142.045V141.045ZM1074.18 138.606C1070.93 137.011 1068.38 134.883 1066.51 132.224L1065.69 132.799C1067.66 135.61 1070.35 137.843 1073.74 139.504L1074.18 138.606ZM1066.47 132.852L1069.74 129.337L1069.01 128.655L1065.73 132.171L1066.47 132.852ZM1068.98 129.312C1073.2 134.487 1078.25 137.113 1084.12 137.113V136.113C1078.59 136.113 1073.81 133.661 1069.76 128.68L1068.98 129.312ZM1084.12 137.113C1089.1 137.113 1093.06 135.63 1095.91 132.611L1095.18 131.924C1092.56 134.7 1088.9 136.113 1084.12 136.113V137.113ZM1095.9 132.613C1098.75 129.634 1100.19 125.513 1100.29 120.314L1099.29 120.295C1099.2 125.318 1097.81 129.172 1095.18 131.922L1095.9 132.613ZM1100.29 120.305V113.664H1099.29V120.305H1100.29ZM1099.39 113.372C1095.75 118.433 1090.46 120.977 1083.43 120.977V121.977C1090.73 121.977 1096.35 119.312 1100.2 113.956L1099.39 113.372ZM1083.43 120.977C1077.47 120.977 1072.7 118.609 1069.09 113.85L1068.29 114.455C1072.09 119.462 1077.16 121.977 1083.43 121.977V120.977ZM1069.09 113.85C1065.46 109.08 1063.62 102.607 1063.62 94.377H1062.62C1062.62 102.749 1064.49 109.459 1068.29 114.455L1069.09 113.85ZM1063.62 94.377V93.5957H1062.62V94.377H1063.62ZM1068.53 94.6211C1068.53 101.42 1069.89 106.854 1072.67 110.872L1073.49 110.303C1070.87 106.509 1069.53 101.299 1069.53 94.6211H1068.53ZM1072.67 110.874C1075.47 114.888 1079.44 116.898 1084.51 116.898V115.898C1079.75 115.898 1076.1 114.035 1073.49 110.302L1072.67 110.874ZM1084.51 116.898C1088.18 116.898 1091.35 116.075 1093.99 114.404C1096.63 112.733 1098.71 110.235 1100.24 106.941L1099.34 106.52C1097.87 109.671 1095.91 112.007 1093.46 113.559C1091 115.111 1088.03 115.898 1084.51 115.898V116.898ZM1100.29 106.73V82.1699H1099.29V106.73H1100.29ZM1100.25 81.9827C1098.86 78.5219 1096.83 75.8648 1094.16 74.0423L1093.6 74.8679C1096.08 76.561 1097.99 79.0471 1099.33 82.3572L1100.25 81.9827ZM1094.17 74.0447C1091.5 72.1874 1088.3 71.2695 1084.61 71.2695V72.2695C1088.13 72.2695 1091.12 73.142 1093.6 74.8654L1094.17 74.0447ZM1084.61 71.2695C1079.53 71.2695 1075.55 73.2796 1072.72 77.2917L1073.54 77.8684C1076.18 74.1331 1079.85 72.2695 1084.61 72.2695V71.2695ZM1072.72 77.2901C1069.9 81.2528 1068.53 87.0546 1068.53 94.6211H1069.53C1069.53 87.1485 1070.89 81.5896 1073.54 77.87L1072.72 77.2901ZM1142.19 118.156L1141.92 118.583L1141.93 118.584L1142.19 118.156ZM1133.74 108.928L1133.29 109.154L1133.29 109.156L1133.74 108.928ZM1133.64 79.7773L1133.19 79.5581L1133.19 79.561L1133.64 79.7773ZM1141.89 70.207L1142.17 70.6248L1142.17 70.6231L1141.89 70.207ZM1168.55 73.2832L1168.17 73.6074L1168.17 73.6105L1168.55 73.2832ZM1174.22 94.4746V94.9746H1174.72V94.4746H1174.22ZM1136.52 94.4746V93.9746H1136.02V94.4746H1136.52ZM1141.65 110.588L1141.27 110.913L1141.27 110.916L1141.65 110.588ZM1162.89 114.836L1162.67 114.384L1162.67 114.385L1162.89 114.836ZM1169.43 109.367L1169.73 108.969L1169.34 108.67L1169.04 109.06L1169.43 109.367ZM1173.09 112.15L1173.51 112.435L1173.78 112.041L1173.4 111.752L1173.09 112.15ZM1142.19 76.5059L1141.82 76.1635L1141.82 76.1655L1142.19 76.5059ZM1136.72 89.4941L1136.22 89.4347L1136.15 89.9941H1136.72V89.4941ZM1168.41 89.4941V89.9941H1168.91V89.4941H1168.41ZM1168.41 88.8594H1168.91V88.8514L1168.91 88.8434L1168.41 88.8594ZM1154.39 120.977C1149.99 120.977 1146.01 119.892 1142.45 117.729L1141.93 118.584C1145.65 120.847 1149.81 121.977 1154.39 121.977V120.977ZM1142.45 117.73C1138.92 115.567 1136.16 112.561 1134.18 108.7L1133.29 109.156C1135.35 113.172 1138.23 116.319 1141.92 118.583L1142.45 117.73ZM1134.18 108.701C1132.21 104.807 1131.21 100.443 1131.21 95.5977H1130.21C1130.21 100.583 1131.24 105.106 1133.29 109.154L1134.18 108.701ZM1131.21 95.5977V93.498H1130.21V95.5977H1131.21ZM1131.21 93.498C1131.21 88.4854 1132.17 83.9872 1134.09 79.9937L1133.19 79.561C1131.2 83.7055 1130.21 88.3545 1130.21 93.498H1131.21ZM1134.09 79.9966C1136.04 76.0019 1138.73 72.883 1142.17 70.6248L1141.62 69.7892C1138.02 72.1535 1135.21 75.4148 1133.19 79.5581L1134.09 79.9966ZM1142.17 70.6231C1145.61 68.3323 1149.32 67.1914 1153.32 67.1914V66.1914C1149.11 66.1914 1145.21 67.3943 1141.62 69.791L1142.17 70.6231ZM1153.32 67.1914C1159.6 67.1914 1164.53 69.3376 1168.17 73.6074L1168.93 72.959C1165.08 68.4397 1159.86 66.1914 1153.32 66.1914V67.1914ZM1168.17 73.6105C1171.85 77.8562 1173.72 83.7002 1173.72 91.2031H1174.72C1174.72 83.5367 1172.81 77.4342 1168.93 72.956L1168.17 73.6105ZM1173.72 91.2031V94.4746H1174.72V91.2031H1173.72ZM1174.22 93.9746H1136.52V94.9746H1174.22V93.9746ZM1136.02 94.4746V95.5977H1137.02V94.4746H1136.02ZM1136.02 95.5977C1136.02 101.689 1137.76 106.806 1141.27 110.913L1142.03 110.263C1138.7 106.362 1137.02 101.486 1137.02 95.5977H1136.02ZM1141.27 110.916C1144.82 114.995 1149.28 117.045 1154.64 117.045V116.045C1149.57 116.045 1145.38 114.123 1142.03 110.26L1141.27 110.916ZM1154.64 117.045C1157.82 117.045 1160.65 116.464 1163.1 115.287L1162.67 114.385C1160.38 115.487 1157.7 116.045 1154.64 116.045V117.045ZM1163.1 115.288C1165.59 114.109 1167.83 112.231 1169.83 109.675L1169.04 109.06C1167.12 111.516 1165 113.284 1162.67 114.384L1163.1 115.288ZM1169.13 109.765L1172.79 112.548L1173.4 111.752L1169.73 108.969L1169.13 109.765ZM1172.68 111.866C1168.49 117.936 1162.41 120.977 1154.39 120.977V121.977C1162.71 121.977 1169.11 118.8 1173.51 112.435L1172.68 111.866ZM1153.32 71.1719C1148.78 71.1719 1144.94 72.841 1141.82 76.1635L1142.55 76.8482C1145.48 73.7254 1149.06 72.1719 1153.32 72.1719V71.1719ZM1141.82 76.1655C1138.74 79.4829 1136.88 83.9195 1136.22 89.4347L1137.21 89.5536C1137.85 84.1964 1139.65 79.9742 1142.55 76.8462L1141.82 76.1655ZM1136.72 89.9941H1168.41V88.9941H1136.72V89.9941ZM1168.91 89.4941V88.8594H1167.91V89.4941H1168.91ZM1168.91 88.8434C1168.74 83.6761 1167.26 79.4252 1164.44 76.1316L1163.68 76.7824C1166.33 79.8691 1167.75 83.8864 1167.91 88.8754L1168.91 88.8434ZM1164.44 76.1316C1161.61 72.8241 1157.88 71.1719 1153.32 71.1719V72.1719C1157.61 72.1719 1161.05 73.7098 1163.68 76.7824L1164.44 76.1316ZM1263.84 90.9102L1264.27 90.659L1264.13 90.4102H1263.84V90.9102ZM1243.19 90.9102V90.4102H1242.69V90.9102H1243.19ZM1243.19 120.5V121H1243.69V120.5H1243.19ZM1237.13 120.5H1236.63V121H1237.13V120.5ZM1237.13 49.4062V48.9062H1236.63V49.4062H1237.13ZM1278 54.9238L1278.33 54.5452L1278 54.9238ZM1280.39 82.4141L1280 82.1099L1280.39 82.4141ZM1269.65 89.6406L1269.51 89.1613L1268.9 89.3433L1269.22 89.8941L1269.65 89.6406ZM1287.42 119.865H1287.92V119.729L1287.85 119.612L1287.42 119.865ZM1287.42 120.5V121H1287.92V120.5H1287.42ZM1281.03 120.5L1280.59 120.751L1280.74 121H1281.03V120.5ZM1243.19 85.7832H1242.69V86.2832H1243.19V85.7832ZM1273.56 58.6836L1273.23 59.0613L1273.56 58.6836ZM1243.19 54.5332V54.0332H1242.69V54.5332H1243.19ZM1263.84 90.4102H1243.19V91.4102H1263.84V90.4102ZM1242.69 90.9102V120.5H1243.69V90.9102H1242.69ZM1243.19 120H1237.13V121H1243.19V120ZM1237.63 120.5V49.4062H1236.63V120.5H1237.63ZM1237.13 49.9062H1260.23V48.9062H1237.13V49.9062ZM1260.23 49.9062C1267.73 49.9062 1273.53 51.726 1277.67 55.3024L1278.33 54.5452C1273.94 50.7649 1267.89 48.9062 1260.23 48.9062V49.9062ZM1277.67 55.3024C1281.81 58.869 1283.9 63.863 1283.9 70.3535H1284.9C1284.9 63.6279 1282.72 58.3354 1278.33 54.5452L1277.67 55.3024ZM1283.9 70.3535C1283.9 74.8054 1282.6 78.7177 1280 82.1099L1280.79 82.7182C1283.53 79.1443 1284.9 75.0162 1284.9 70.3535H1283.9ZM1280 82.1099C1277.4 85.5034 1273.91 87.8546 1269.51 89.1613L1269.79 90.1199C1274.38 88.7574 1278.05 86.2909 1280.79 82.7182L1280 82.1099ZM1269.22 89.8941L1286.99 120.119L1287.85 119.612L1270.08 89.3872L1269.22 89.8941ZM1286.92 119.865V120.5H1287.92V119.865H1286.92ZM1287.42 120H1281.03V121H1287.42V120ZM1281.46 120.249L1264.27 90.659L1263.41 91.1613L1280.59 120.751L1281.46 120.249ZM1243.19 86.2832H1261.59V85.2832H1243.19V86.2832ZM1261.59 86.2832C1266.74 86.2832 1270.92 84.8197 1274.09 81.8513L1273.41 81.1213C1270.46 83.8821 1266.54 85.2832 1261.59 85.2832V86.2832ZM1274.09 81.8513C1277.26 78.8834 1278.84 75.0357 1278.84 70.3535H1277.84C1277.84 74.7859 1276.36 78.3601 1273.41 81.1213L1274.09 81.8513ZM1278.84 70.3535C1278.84 65.2254 1277.2 61.1857 1273.88 58.3059L1273.23 59.0613C1276.29 61.7153 1277.84 65.4556 1277.84 70.3535H1278.84ZM1273.88 58.3059C1270.57 55.4354 1265.97 54.0332 1260.13 54.0332V55.0332C1265.81 55.0332 1270.16 56.398 1273.23 59.0613L1273.88 58.3059ZM1260.13 54.0332H1243.19V55.0332H1260.13V54.0332ZM1242.69 54.5332V85.7832H1243.69V54.5332H1242.69ZM1320.64 118.156L1320.38 118.583L1320.38 118.584L1320.64 118.156ZM1312.19 108.928L1311.75 109.154L1311.75 109.156L1312.19 108.928ZM1312.09 79.7773L1311.64 79.5581L1311.64 79.561L1312.09 79.7773ZM1320.35 70.207L1320.62 70.6248L1320.62 70.6231L1320.35 70.207ZM1347.01 73.2832L1346.63 73.6074L1346.63 73.6105L1347.01 73.2832ZM1352.67 94.4746V94.9746H1353.17V94.4746H1352.67ZM1314.97 94.4746V93.9746H1314.47V94.4746H1314.97ZM1320.1 110.588L1319.72 110.913L1319.72 110.916L1320.1 110.588ZM1341.34 114.836L1341.13 114.384L1341.13 114.385L1341.34 114.836ZM1347.88 109.367L1348.19 108.969L1347.79 108.67L1347.49 109.06L1347.88 109.367ZM1351.55 112.15L1351.96 112.435L1352.23 112.041L1351.85 111.752L1351.55 112.15ZM1320.64 76.5059L1320.27 76.1635L1320.27 76.1655L1320.64 76.5059ZM1315.17 89.4941L1314.67 89.4347L1314.61 89.9941H1315.17V89.4941ZM1346.86 89.4941V89.9941H1347.36V89.4941H1346.86ZM1346.86 88.8594H1347.36V88.8514L1347.36 88.8434L1346.86 88.8594ZM1332.85 120.977C1328.44 120.977 1324.46 119.892 1320.9 117.729L1320.38 118.584C1324.11 120.847 1328.27 121.977 1332.85 121.977V120.977ZM1320.9 117.73C1317.37 115.567 1314.61 112.561 1312.64 108.7L1311.75 109.156C1313.8 113.172 1316.68 116.319 1320.38 118.583L1320.9 117.73ZM1312.64 108.701C1310.66 104.807 1309.66 100.443 1309.66 95.5977H1308.66C1308.66 100.583 1309.69 105.106 1311.75 109.154L1312.64 108.701ZM1309.66 95.5977V93.498H1308.66V95.5977H1309.66ZM1309.66 93.498C1309.66 88.4854 1310.63 83.9872 1312.54 79.9937L1311.64 79.561C1309.65 83.7055 1308.66 88.3545 1308.66 93.498H1309.66ZM1312.54 79.9966C1314.49 76.0019 1317.19 72.883 1320.62 70.6248L1320.07 69.7892C1316.47 72.1535 1313.67 75.4148 1311.64 79.5581L1312.54 79.9966ZM1320.62 70.6231C1324.06 68.3323 1327.77 67.1914 1331.77 67.1914V66.1914C1327.57 66.1914 1323.66 67.3943 1320.07 69.791L1320.62 70.6231ZM1331.77 67.1914C1338.06 67.1914 1342.99 69.3376 1346.63 73.6074L1347.39 72.959C1343.54 68.4397 1338.31 66.1914 1331.77 66.1914V67.1914ZM1346.63 73.6105C1350.3 77.8562 1352.17 83.7002 1352.17 91.2031H1353.17C1353.17 83.5367 1351.26 77.4342 1347.38 72.956L1346.63 73.6105ZM1352.17 91.2031V94.4746H1353.17V91.2031H1352.17ZM1352.67 93.9746H1314.97V94.9746H1352.67V93.9746ZM1314.47 94.4746V95.5977H1315.47V94.4746H1314.47ZM1314.47 95.5977C1314.47 101.689 1316.22 106.806 1319.72 110.913L1320.48 110.263C1317.15 106.362 1315.47 101.486 1315.47 95.5977H1314.47ZM1319.72 110.916C1323.27 114.995 1327.74 117.045 1333.09 117.045V116.045C1328.03 116.045 1323.84 114.123 1320.48 110.26L1319.72 110.916ZM1333.09 117.045C1336.28 117.045 1339.1 116.464 1341.56 115.287L1341.13 114.385C1338.83 115.487 1336.15 116.045 1333.09 116.045V117.045ZM1341.56 115.288C1344.05 114.109 1346.29 112.231 1348.28 109.675L1347.49 109.06C1345.58 111.516 1343.45 113.284 1341.13 114.384L1341.56 115.288ZM1347.58 109.765L1351.24 112.548L1351.85 111.752L1348.19 108.969L1347.58 109.765ZM1351.14 111.866C1346.94 117.936 1340.87 120.977 1332.85 120.977V121.977C1341.16 121.977 1347.56 118.8 1351.96 112.435L1351.14 111.866ZM1331.77 71.1719C1327.24 71.1719 1323.4 72.841 1320.27 76.1635L1321 76.8482C1323.94 73.7254 1327.52 72.1719 1331.77 72.1719V71.1719ZM1320.27 76.1655C1317.19 79.4829 1315.33 83.9195 1314.67 89.4347L1315.67 89.5536C1316.31 84.1964 1318.1 79.9742 1321 76.8462L1320.27 76.1655ZM1315.17 89.9941H1346.86V88.9941H1315.17V89.9941ZM1347.36 89.4941V88.8594H1346.36V89.4941H1347.36ZM1347.36 88.8434C1347.19 83.6761 1345.72 79.4252 1342.89 76.1316L1342.13 76.7824C1344.78 79.8691 1346.2 83.8864 1346.36 88.8754L1347.36 88.8434ZM1342.89 76.1316C1340.06 72.8241 1336.34 71.1719 1331.77 71.1719V72.1719C1336.06 72.1719 1339.5 73.7098 1342.13 76.7824L1342.89 76.1316ZM1381.25 120.5H1380.75V121H1381.25V120.5ZM1381.25 72.4531H1381.75V71.9531H1381.25V72.4531ZM1372.51 72.4531H1372.01V72.9531H1372.51V72.4531ZM1372.51 67.668V67.168H1372.01V67.668H1372.51ZM1381.25 67.668V68.168H1381.75V67.668H1381.25ZM1385.35 48.8203L1384.99 48.475L1384.98 48.4771L1385.35 48.8203ZM1403.07 45.3047L1403.57 45.3495L1403.61 44.9385L1403.21 44.8242L1403.07 45.3047ZM1402.63 50.1875L1402.52 50.6737L1403.08 50.8088L1403.13 50.2323L1402.63 50.1875ZM1389.79 52.6289L1390.16 52.9637L1390.17 52.9607L1389.79 52.6289ZM1387.11 67.668H1386.61V68.168H1387.11V67.668ZM1399.7 67.668H1400.2V67.168H1399.7V67.668ZM1399.7 72.4531V72.9531H1400.2V72.4531H1399.7ZM1387.11 72.4531V71.9531H1386.61V72.4531H1387.11ZM1387.11 120.5V121H1387.61V120.5H1387.11ZM1381.75 120.5V72.4531H1380.75V120.5H1381.75ZM1381.25 71.9531H1372.51V72.9531H1381.25V71.9531ZM1373.01 72.4531V67.668H1372.01V72.4531H1373.01ZM1372.51 68.168H1381.25V67.168H1372.51V68.168ZM1381.75 67.668V61.2715H1380.75V67.668H1381.75ZM1381.75 61.2715C1381.75 55.9492 1383.09 51.9389 1385.71 49.1635L1384.98 48.4771C1382.13 51.496 1380.75 55.7865 1380.75 61.2715H1381.75ZM1385.71 49.1656C1388.36 46.389 1392.06 44.9746 1396.87 44.9746V43.9746C1391.85 43.9746 1387.87 45.4574 1384.99 48.475L1385.71 49.1656ZM1396.87 44.9746C1399.04 44.9746 1401.06 45.246 1402.93 45.7851L1403.21 44.8242C1401.24 44.2566 1399.13 43.9746 1396.87 43.9746V44.9746ZM1402.57 45.2599L1402.13 50.1427L1403.13 50.2323L1403.57 45.3495L1402.57 45.2599ZM1402.75 49.7013C1401.08 49.3003 1399.26 49.1016 1397.31 49.1016V50.1016C1399.2 50.1016 1400.93 50.2935 1402.52 50.6737L1402.75 49.7013ZM1397.31 49.1016C1393.98 49.1016 1391.32 50.1511 1389.42 52.2971L1390.17 52.9607C1391.84 51.0703 1394.2 50.1016 1397.31 50.1016V49.1016ZM1389.42 52.2941C1387.52 54.4013 1386.61 57.3697 1386.61 61.125H1387.61C1387.61 57.5235 1388.48 54.8279 1390.16 52.9637L1389.42 52.2941ZM1386.61 61.125V67.668H1387.61V61.125H1386.61ZM1387.11 68.168H1399.7V67.168H1387.11V68.168ZM1399.2 67.668V72.4531H1400.2V67.668H1399.2ZM1399.7 71.9531H1387.11V72.9531H1399.7V71.9531ZM1386.61 72.4531V120.5H1387.61V72.4531H1386.61ZM1387.11 120H1381.25V121H1387.11V120ZM1430.23 118.156L1429.97 118.583L1429.97 118.584L1430.23 118.156ZM1421.79 108.928L1421.34 109.154L1421.34 109.156L1421.79 108.928ZM1421.69 79.7773L1421.24 79.5581L1421.24 79.561L1421.69 79.7773ZM1429.94 70.207L1430.21 70.6248L1430.22 70.6231L1429.94 70.207ZM1456.6 73.2832L1456.22 73.6074L1456.22 73.6105L1456.6 73.2832ZM1462.26 94.4746V94.9746H1462.76V94.4746H1462.26ZM1424.57 94.4746V93.9746H1424.07V94.4746H1424.57ZM1429.7 110.588L1429.32 110.913L1429.32 110.916L1429.7 110.588ZM1450.94 114.836L1450.72 114.384L1450.72 114.385L1450.94 114.836ZM1457.48 109.367L1457.78 108.969L1457.39 108.67L1457.08 109.06L1457.48 109.367ZM1461.14 112.15L1461.55 112.435L1461.82 112.041L1461.44 111.752L1461.14 112.15ZM1430.23 76.5059L1429.87 76.1635L1429.87 76.1655L1430.23 76.5059ZM1424.76 89.4941L1424.27 89.4347L1424.2 89.9941H1424.76V89.4941ZM1456.45 89.4941V89.9941H1456.95V89.4941H1456.45ZM1456.45 88.8594H1456.95V88.8514L1456.95 88.8434L1456.45 88.8594ZM1442.44 120.977C1438.03 120.977 1434.06 119.892 1430.49 117.729L1429.97 118.584C1433.7 120.847 1437.86 121.977 1442.44 121.977V120.977ZM1430.49 117.73C1426.96 115.567 1424.21 112.561 1422.23 108.7L1421.34 109.156C1423.4 113.172 1426.28 116.319 1429.97 118.583L1430.49 117.73ZM1422.23 108.701C1420.25 104.807 1419.26 100.443 1419.26 95.5977H1418.26C1418.26 100.583 1419.28 105.106 1421.34 109.154L1422.23 108.701ZM1419.26 95.5977V93.498H1418.26V95.5977H1419.26ZM1419.26 93.498C1419.26 88.4854 1420.22 83.9872 1422.14 79.9937L1421.24 79.561C1419.25 83.7055 1418.26 88.3545 1418.26 93.498H1419.26ZM1422.14 79.9966C1424.09 76.0019 1426.78 72.883 1430.21 70.6248L1429.66 69.7892C1426.07 72.1535 1423.26 75.4148 1421.24 79.5581L1422.14 79.9966ZM1430.22 70.6231C1433.65 68.3323 1437.37 67.1914 1441.37 67.1914V66.1914C1437.16 66.1914 1433.26 67.3943 1429.66 69.791L1430.22 70.6231ZM1441.37 67.1914C1447.65 67.1914 1452.58 69.3376 1456.22 73.6074L1456.98 72.959C1453.13 68.4397 1447.91 66.1914 1441.37 66.1914V67.1914ZM1456.22 73.6105C1459.9 77.8562 1461.76 83.7002 1461.76 91.2031H1462.76C1462.76 83.5367 1460.85 77.4342 1456.98 72.956L1456.22 73.6105ZM1461.76 91.2031V94.4746H1462.76V91.2031H1461.76ZM1462.26 93.9746H1424.57V94.9746H1462.26V93.9746ZM1424.07 94.4746V95.5977H1425.07V94.4746H1424.07ZM1424.07 95.5977C1424.07 101.689 1425.81 106.806 1429.32 110.913L1430.08 110.263C1426.75 106.362 1425.07 101.486 1425.07 95.5977H1424.07ZM1429.32 110.916C1432.86 114.995 1437.33 117.045 1442.68 117.045V116.045C1437.62 116.045 1433.43 114.123 1430.07 110.26L1429.32 110.916ZM1442.68 117.045C1445.87 117.045 1448.7 116.464 1451.15 115.287L1450.72 114.385C1448.42 115.487 1445.75 116.045 1442.68 116.045V117.045ZM1451.15 115.288C1453.64 114.109 1455.88 112.231 1457.87 109.675L1457.08 109.06C1455.17 111.516 1453.05 113.284 1450.72 114.384L1451.15 115.288ZM1457.18 109.765L1460.84 112.548L1461.44 111.752L1457.78 108.969L1457.18 109.765ZM1460.73 111.866C1456.53 117.936 1450.46 120.977 1442.44 120.977V121.977C1450.76 121.977 1457.15 118.8 1461.55 112.435L1460.73 111.866ZM1441.37 71.1719C1436.83 71.1719 1432.99 72.841 1429.87 76.1635L1430.6 76.8482C1433.53 73.7254 1437.11 72.1719 1441.37 72.1719V71.1719ZM1429.87 76.1655C1426.78 79.4829 1424.93 83.9195 1424.27 89.4347L1425.26 89.5536C1425.9 84.1964 1427.69 79.9742 1430.6 76.8462L1429.87 76.1655ZM1424.76 89.9941H1456.45V88.9941H1424.76V89.9941ZM1456.95 89.4941V88.8594H1455.95V89.4941H1456.95ZM1456.95 88.8434C1456.79 83.6761 1455.31 79.4252 1452.49 76.1316L1451.73 76.7824C1454.37 79.8691 1455.79 83.8864 1455.95 88.8754L1456.95 88.8434ZM1452.49 76.1316C1449.65 72.8241 1445.93 71.1719 1441.37 71.1719V72.1719C1445.66 72.1719 1449.09 73.7098 1451.73 76.7824L1452.49 76.1316ZM1511.05 72.6484L1510.96 73.1402L1511.54 73.246L1511.55 72.6622L1511.05 72.6484ZM1497.82 75.3828L1498.14 75.7723L1498.14 75.7718L1497.82 75.3828ZM1492.45 84.2207L1491.97 84.0871L1491.95 84.1527V84.2207H1492.45ZM1492.45 120.5V121H1492.95V120.5H1492.45ZM1486.64 120.5H1486.14V121H1486.64V120.5ZM1486.64 67.668V67.168H1486.14V67.668H1486.64ZM1492.35 67.668L1492.85 67.6622L1492.85 67.168H1492.35V67.668ZM1492.45 76.0664L1491.95 76.0722L1492.9 76.2881L1492.45 76.0664ZM1511.2 67.3262L1511.7 67.3399L1511.71 67.0064L1511.41 66.8699L1511.2 67.3262ZM1511.15 72.1567C1509.88 71.9228 1508.53 71.8066 1507.1 71.8066V72.8066C1508.47 72.8066 1509.76 72.9184 1510.96 73.1402L1511.15 72.1567ZM1507.1 71.8066C1503.35 71.8066 1500.15 72.8628 1497.51 74.9938L1498.14 75.7718C1500.58 73.8013 1503.55 72.8066 1507.1 72.8066V71.8066ZM1497.51 74.9934C1494.9 77.092 1493.06 80.138 1491.97 84.0871L1492.93 84.3543C1493.99 80.556 1495.73 77.7101 1498.14 75.7723L1497.51 74.9934ZM1491.95 84.2207V120.5H1492.95V84.2207H1491.95ZM1492.45 120H1486.64V121H1492.45V120ZM1487.14 120.5V67.668H1486.14V120.5H1487.14ZM1486.64 68.168H1492.35V67.168H1486.64V68.168ZM1491.85 67.6738L1491.95 76.0722L1492.95 76.0606L1492.85 67.6622L1491.85 67.6738ZM1492.9 76.2881C1494.41 73.23 1496.37 70.9631 1498.76 69.4583C1501.15 67.9538 1504 67.1914 1507.34 67.1914V66.1914C1503.85 66.1914 1500.8 66.9915 1498.23 68.612C1495.65 70.2322 1493.58 72.6528 1492 75.8447L1492.9 76.2881ZM1507.34 67.1914C1508.94 67.1914 1510.14 67.3999 1511 67.7824L1511.41 66.8699C1510.37 66.4061 1509.01 66.1914 1507.34 66.1914V67.1914ZM1510.7 67.3124L1510.55 72.6347L1511.55 72.6622L1511.7 67.3399L1510.7 67.3124ZM1540.61 118.156L1540.35 118.583L1540.35 118.584L1540.61 118.156ZM1532.16 108.928L1531.71 109.154L1531.72 109.156L1532.16 108.928ZM1532.06 79.7773L1531.61 79.5581L1531.61 79.561L1532.06 79.7773ZM1540.31 70.207L1540.59 70.6248L1540.59 70.6231L1540.31 70.207ZM1566.97 73.2832L1566.59 73.6074L1566.6 73.6105L1566.97 73.2832ZM1572.64 94.4746V94.9746H1573.14V94.4746H1572.64ZM1534.94 94.4746V93.9746H1534.44V94.4746H1534.94ZM1540.07 110.588L1539.69 110.913L1539.69 110.916L1540.07 110.588ZM1561.31 114.836L1561.1 114.384L1561.09 114.385L1561.31 114.836ZM1567.85 109.367L1568.16 108.969L1567.76 108.67L1567.46 109.06L1567.85 109.367ZM1571.52 112.15L1571.93 112.435L1572.2 112.041L1571.82 111.752L1571.52 112.15ZM1540.61 76.5059L1540.24 76.1635L1540.24 76.1655L1540.61 76.5059ZM1535.14 89.4941L1534.64 89.4347L1534.58 89.9941H1535.14V89.4941ZM1566.83 89.4941V89.9941H1567.33V89.4941H1566.83ZM1566.83 88.8594H1567.33V88.8514L1567.33 88.8434L1566.83 88.8594ZM1552.81 120.977C1548.41 120.977 1544.43 119.892 1540.87 117.729L1540.35 118.584C1544.08 120.847 1548.24 121.977 1552.81 121.977V120.977ZM1540.87 117.73C1537.34 115.567 1534.58 112.561 1532.61 108.7L1531.72 109.156C1533.77 113.172 1536.65 116.319 1540.35 118.583L1540.87 117.73ZM1532.61 108.701C1530.63 104.807 1529.63 100.443 1529.63 95.5977H1528.63C1528.63 100.583 1529.66 105.106 1531.71 109.154L1532.61 108.701ZM1529.63 95.5977V93.498H1528.63V95.5977H1529.63ZM1529.63 93.498C1529.63 88.4854 1530.6 83.9872 1532.51 79.9937L1531.61 79.561C1529.62 83.7055 1528.63 88.3545 1528.63 93.498H1529.63ZM1532.51 79.9966C1534.46 76.0019 1537.15 72.883 1540.59 70.6248L1540.04 69.7892C1536.44 72.1535 1533.64 75.4148 1531.61 79.5581L1532.51 79.9966ZM1540.59 70.6231C1544.03 68.3323 1547.74 67.1914 1551.74 67.1914V66.1914C1547.54 66.1914 1543.63 67.3943 1540.04 69.791L1540.59 70.6231ZM1551.74 67.1914C1558.02 67.1914 1562.96 69.3376 1566.59 73.6074L1567.36 72.959C1563.51 68.4397 1558.28 66.1914 1551.74 66.1914V67.1914ZM1566.6 73.6105C1570.27 77.8562 1572.14 83.7002 1572.14 91.2031H1573.14C1573.14 83.5367 1571.23 77.4342 1567.35 72.956L1566.6 73.6105ZM1572.14 91.2031V94.4746H1573.14V91.2031H1572.14ZM1572.64 93.9746H1534.94V94.9746H1572.64V93.9746ZM1534.44 94.4746V95.5977H1535.44V94.4746H1534.44ZM1534.44 95.5977C1534.44 101.689 1536.18 106.806 1539.69 110.913L1540.45 110.263C1537.12 106.362 1535.44 101.486 1535.44 95.5977H1534.44ZM1539.69 110.916C1543.24 114.995 1547.7 117.045 1553.06 117.045V116.045C1548 116.045 1543.8 114.123 1540.45 110.26L1539.69 110.916ZM1553.06 117.045C1556.24 117.045 1559.07 116.464 1561.53 115.287L1561.09 114.385C1558.8 115.487 1556.12 116.045 1553.06 116.045V117.045ZM1561.52 115.288C1564.02 114.109 1566.26 112.231 1568.25 109.675L1567.46 109.06C1565.54 111.516 1563.42 113.284 1561.1 114.384L1561.52 115.288ZM1567.55 109.765L1571.21 112.548L1571.82 111.752L1568.16 108.969L1567.55 109.765ZM1571.1 111.866C1566.91 117.936 1560.84 120.977 1552.81 120.977V121.977C1561.13 121.977 1567.53 118.8 1571.93 112.435L1571.1 111.866ZM1551.74 71.1719C1547.21 71.1719 1543.36 72.841 1540.24 76.1635L1540.97 76.8482C1543.91 73.7254 1547.48 72.1719 1551.74 72.1719V71.1719ZM1540.24 76.1655C1537.16 79.4829 1535.3 83.9195 1534.64 89.4347L1535.64 89.5536C1536.28 84.1964 1538.07 79.9742 1540.97 76.8462L1540.24 76.1655ZM1535.14 89.9941H1566.83V88.9941H1535.14V89.9941ZM1567.33 89.4941V88.8594H1566.33V89.4941H1567.33ZM1567.33 88.8434C1567.16 83.6761 1565.69 79.4252 1562.86 76.1316L1562.1 76.7824C1564.75 79.8691 1566.17 83.8864 1566.33 88.8754L1567.33 88.8434ZM1562.86 76.1316C1560.03 72.8241 1556.3 71.1719 1551.74 71.1719V72.1719C1556.03 72.1719 1559.47 73.7098 1562.1 76.7824L1562.86 76.1316ZM1602.58 67.668L1603.08 67.6572L1603.07 67.168H1602.58V67.668ZM1602.78 76.7012L1602.28 76.712L1602.31 78.4202L1603.2 76.9616L1602.78 76.7012ZM1610.2 69.2793L1610.45 69.7134L1610.45 69.7114L1610.2 69.2793ZM1632.66 71.4766L1633.04 71.149L1632.66 71.4766ZM1636.86 85.832L1637.36 85.832L1637.36 85.8295L1636.86 85.832ZM1636.86 120.5V121H1637.36V120.5H1636.86ZM1631.05 120.5H1630.55V121H1631.05V120.5ZM1631.05 85.7832H1631.55L1631.55 85.7798L1631.05 85.7832ZM1628.02 75.2363L1627.64 75.5591L1627.64 75.5622L1628.02 75.2363ZM1608.98 75.1875L1609.29 75.5757L1609.29 75.5753L1608.98 75.1875ZM1602.83 84.3184L1602.35 84.1543L1602.33 84.234V84.3184H1602.83ZM1602.83 120.5V121H1603.33V120.5H1602.83ZM1597.02 120.5H1596.52V121H1597.02V120.5ZM1597.02 67.668V67.168H1596.52V67.668H1597.02ZM1602.08 67.6788L1602.28 76.712L1603.28 76.6904L1603.08 67.6572L1602.08 67.6788ZM1603.2 76.9616C1605.15 73.7698 1607.57 71.3595 1610.45 69.7134L1609.95 68.8452C1606.91 70.5845 1604.37 73.1221 1602.35 76.4408L1603.2 76.9616ZM1610.45 69.7114C1613.33 68.0326 1616.52 67.1914 1620.01 67.1914V66.1914C1616.35 66.1914 1612.99 67.0755 1609.95 68.8472L1610.45 69.7114ZM1620.01 67.1914C1625.58 67.1914 1629.64 68.7576 1632.28 71.8042L1633.04 71.149C1630.15 67.8153 1625.77 66.1914 1620.01 66.1914V67.1914ZM1632.28 71.8042C1634.94 74.8678 1636.33 79.515 1636.36 85.8346L1637.36 85.8295C1637.33 79.3886 1635.91 74.4656 1633.04 71.149L1632.28 71.8042ZM1636.36 85.832V120.5H1637.36V85.832H1636.36ZM1636.86 120H1631.05V121H1636.86V120ZM1631.55 120.5V85.7832H1630.55V120.5H1631.55ZM1631.55 85.7798C1631.52 81.0033 1630.5 77.3493 1628.4 74.9105L1627.64 75.5622C1629.52 77.7457 1630.52 81.123 1630.55 85.7867L1631.55 85.7798ZM1628.4 74.9136C1626.32 72.448 1623.01 71.2695 1618.6 71.2695V72.2695C1622.85 72.2695 1625.82 73.4022 1627.64 75.5591L1628.4 74.9136ZM1618.6 71.2695C1614.87 71.2695 1611.55 72.4484 1608.66 74.7997L1609.29 75.5753C1612 73.3693 1615.1 72.2695 1618.6 72.2695V71.2695ZM1608.66 74.7993C1605.81 77.1119 1603.71 80.2379 1602.35 84.1543L1603.3 84.4825C1604.61 80.7165 1606.61 77.7552 1609.29 75.5757L1608.66 74.7993ZM1602.33 84.3184V120.5H1603.33V84.3184H1602.33ZM1602.83 120H1597.02V121H1602.83V120ZM1597.52 120.5V67.668H1596.52V120.5H1597.52ZM1597.02 68.168H1602.58V67.168H1597.02V68.168ZM1694.73 113.127L1695.05 113.511L1695.05 113.511L1694.73 113.127ZM1699.22 104.191V103.691H1698.75L1698.73 104.16L1699.22 104.191ZM1704.84 104.191L1705.34 104.217L1705.37 103.691H1704.84V104.191ZM1701.81 113.029L1702.22 113.317L1702.22 113.315L1701.81 113.029ZM1694.39 119.23L1694.17 118.78L1694.17 118.781L1694.39 119.23ZM1668.02 114.25L1667.64 114.571L1667.64 114.573L1668.02 114.25ZM1664.7 79.2402L1664.25 79.0331L1664.7 79.2402ZM1672.52 69.9629L1672.25 69.5414L1672.24 69.5426L1672.52 69.9629ZM1698.79 71.8672L1698.45 72.2348L1698.45 72.2363L1698.79 71.8672ZM1704.84 85.4902V85.9902H1705.36L1705.34 85.4671L1704.84 85.4902ZM1699.22 85.4902L1698.73 85.5217L1698.76 85.9902H1699.22V85.4902ZM1694.73 75.4805L1694.39 75.8448L1694.39 75.8469L1694.73 75.4805ZM1672.17 77.3848L1671.78 77.0799L1671.78 77.0821L1672.17 77.3848ZM1672.17 110.881L1671.78 111.185L1671.78 111.187L1672.17 110.881ZM1684.53 117.045C1688.7 117.045 1692.22 115.875 1695.05 113.511L1694.41 112.743C1691.78 114.936 1688.5 116.045 1684.53 116.045V117.045ZM1695.05 113.511C1697.93 111.11 1699.49 108.003 1699.72 104.223L1698.73 104.16C1698.51 107.671 1697.07 110.521 1694.41 112.743L1695.05 113.511ZM1699.22 104.691H1704.84V103.691H1699.22V104.691ZM1704.34 104.166C1704.18 107.295 1703.2 110.151 1701.4 112.744L1702.22 113.315C1704.13 110.569 1705.17 107.533 1705.34 104.217L1704.34 104.166ZM1701.4 112.742C1699.6 115.304 1697.19 117.318 1694.17 118.78L1694.61 119.68C1697.77 118.149 1700.31 116.028 1702.22 113.317L1701.4 112.742ZM1694.17 118.781C1691.18 120.244 1687.97 120.977 1684.53 120.977V121.977C1688.12 121.977 1691.48 121.212 1694.61 119.68L1694.17 118.781ZM1684.53 120.977C1677.72 120.977 1672.37 118.621 1668.41 113.927L1667.64 114.573C1671.82 119.515 1677.46 121.977 1684.53 121.977V120.977ZM1668.41 113.929C1664.47 109.225 1662.47 102.872 1662.47 94.8164H1661.47C1661.47 103.037 1663.51 109.64 1667.64 114.571L1668.41 113.929ZM1662.47 94.8164V93.0586H1661.47V94.8164H1662.47ZM1662.47 93.0586C1662.47 87.9088 1663.37 83.3754 1665.16 79.4474L1664.25 79.0331C1662.39 83.1129 1661.47 87.7918 1661.47 93.0586H1662.47ZM1665.16 79.4474C1666.95 75.5224 1669.49 72.5075 1672.79 70.3832L1672.24 69.5426C1668.77 71.7802 1666.11 74.9503 1664.25 79.0331L1665.16 79.4474ZM1672.78 70.3844C1676.11 68.2608 1680 67.1914 1684.48 67.1914V66.1914C1679.84 66.1914 1675.75 67.303 1672.25 69.5414L1672.78 70.3844ZM1684.48 67.1914C1690.17 67.1914 1694.81 68.8813 1698.45 72.2348L1699.12 71.4995C1695.28 67.9521 1690.38 66.1914 1684.48 66.1914V67.1914ZM1698.45 72.2363C1702.12 75.588 1704.09 79.9993 1704.34 85.5133L1705.34 85.4671C1705.07 79.7182 1703.01 75.0475 1699.12 71.4981L1698.45 72.2363ZM1704.84 84.9902H1699.22V85.9902H1704.84V84.9902ZM1699.72 85.4588C1699.46 81.2121 1697.91 77.7502 1695.07 75.1141L1694.39 75.8469C1697.02 78.2888 1698.47 81.5001 1698.73 85.5217L1699.72 85.4588ZM1695.07 75.1161C1692.27 72.4796 1688.72 71.1719 1684.48 71.1719V72.1719C1688.5 72.1719 1691.79 73.4032 1694.39 75.8448L1695.07 75.1161ZM1684.48 71.1719C1679.07 71.1719 1674.81 73.1351 1671.78 77.0799L1672.57 77.6896C1675.4 74.0172 1679.34 72.1719 1684.48 72.1719V71.1719ZM1671.78 77.0821C1668.79 81.0084 1667.33 86.4687 1667.33 93.4004H1668.33C1668.33 86.5952 1669.76 81.3784 1672.57 77.6875L1671.78 77.0821ZM1667.33 93.4004V95.1094H1668.33V93.4004H1667.33ZM1667.33 95.1094C1667.33 101.913 1668.79 107.292 1671.78 111.185L1672.57 110.577C1669.76 106.918 1668.33 101.782 1668.33 95.1094H1667.33ZM1671.78 111.187C1674.81 115.1 1679.09 117.045 1684.53 117.045V116.045C1679.36 116.045 1675.39 114.214 1672.57 110.574L1671.78 111.187ZM1737.81 118.156L1737.55 118.583L1737.55 118.584L1737.81 118.156ZM1729.36 108.928L1728.92 109.154L1728.92 109.156L1729.36 108.928ZM1729.27 79.7773L1728.82 79.5581L1728.81 79.561L1729.27 79.7773ZM1737.52 70.207L1737.79 70.6248L1737.79 70.6231L1737.52 70.207ZM1764.18 73.2832L1763.8 73.6074L1763.8 73.6105L1764.18 73.2832ZM1769.84 94.4746V94.9746H1770.34V94.4746H1769.84ZM1732.15 94.4746V93.9746H1731.65V94.4746H1732.15ZM1737.27 110.588L1736.89 110.913L1736.9 110.916L1737.27 110.588ZM1758.51 114.836L1758.3 114.384L1758.3 114.385L1758.51 114.836ZM1765.06 109.367L1765.36 108.969L1764.97 108.67L1764.66 109.06L1765.06 109.367ZM1768.72 112.15L1769.13 112.435L1769.4 112.041L1769.02 111.752L1768.72 112.15ZM1737.81 76.5059L1737.45 76.1635L1737.44 76.1655L1737.81 76.5059ZM1732.34 89.4941L1731.85 89.4347L1731.78 89.9941H1732.34V89.4941ZM1764.03 89.4941V89.9941H1764.53V89.4941H1764.03ZM1764.03 88.8594H1764.53V88.8514L1764.53 88.8434L1764.03 88.8594ZM1750.02 120.977C1745.61 120.977 1741.63 119.892 1738.07 117.729L1737.55 118.584C1741.28 120.847 1745.44 121.977 1750.02 121.977V120.977ZM1738.07 117.73C1734.54 115.567 1731.79 112.561 1729.81 108.7L1728.92 109.156C1730.98 113.172 1733.85 116.319 1737.55 118.583L1738.07 117.73ZM1729.81 108.701C1727.83 104.807 1726.84 100.443 1726.84 95.5977H1725.84C1725.84 100.583 1726.86 105.106 1728.92 109.154L1729.81 108.701ZM1726.84 95.5977V93.498H1725.84V95.5977H1726.84ZM1726.84 93.498C1726.84 88.4854 1727.8 83.9872 1729.72 79.9937L1728.81 79.561C1726.83 83.7055 1725.84 88.3545 1725.84 93.498H1726.84ZM1729.71 79.9966C1731.66 76.0019 1734.36 72.883 1737.79 70.6248L1737.24 69.7892C1733.65 72.1535 1730.84 75.4148 1728.82 79.5581L1729.71 79.9966ZM1737.79 70.6231C1741.23 68.3323 1744.94 67.1914 1748.94 67.1914V66.1914C1744.74 66.1914 1740.84 67.3943 1737.24 69.791L1737.79 70.6231ZM1748.94 67.1914C1755.23 67.1914 1760.16 69.3376 1763.8 73.6074L1764.56 72.959C1760.71 68.4397 1755.48 66.1914 1748.94 66.1914V67.1914ZM1763.8 73.6105C1767.48 77.8562 1769.34 83.7002 1769.34 91.2031H1770.34C1770.34 83.5367 1768.43 77.4342 1764.56 72.956L1763.8 73.6105ZM1769.34 91.2031V94.4746H1770.34V91.2031H1769.34ZM1769.84 93.9746H1732.15V94.9746H1769.84V93.9746ZM1731.65 94.4746V95.5977H1732.65V94.4746H1731.65ZM1731.65 95.5977C1731.65 101.689 1733.39 106.806 1736.89 110.913L1737.65 110.263C1734.32 106.362 1732.65 101.486 1732.65 95.5977H1731.65ZM1736.9 110.916C1740.44 114.995 1744.91 117.045 1750.26 117.045V116.045C1745.2 116.045 1741.01 114.123 1737.65 110.26L1736.9 110.916ZM1750.26 117.045C1753.45 117.045 1756.27 116.464 1758.73 115.287L1758.3 114.385C1756 115.487 1753.33 116.045 1750.26 116.045V117.045ZM1758.73 115.288C1761.22 114.109 1763.46 112.231 1765.45 109.675L1764.66 109.06C1762.75 111.516 1760.63 113.284 1758.3 114.384L1758.73 115.288ZM1764.75 109.765L1768.42 112.548L1769.02 111.752L1765.36 108.969L1764.75 109.765ZM1768.31 111.866C1764.11 117.936 1758.04 120.977 1750.02 120.977V121.977C1758.34 121.977 1764.73 118.8 1769.13 112.435L1768.31 111.866ZM1748.94 71.1719C1744.41 71.1719 1740.57 72.841 1737.45 76.1635L1738.17 76.8482C1741.11 73.7254 1744.69 72.1719 1748.94 72.1719V71.1719ZM1737.44 76.1655C1734.36 79.4829 1732.51 83.9195 1731.85 89.4347L1732.84 89.5536C1733.48 84.1964 1735.27 79.9742 1738.18 76.8462L1737.44 76.1655ZM1732.34 89.9941H1764.03V88.9941H1732.34V89.9941ZM1764.53 89.4941V88.8594H1763.53V89.4941H1764.53ZM1764.53 88.8434C1764.37 83.6761 1762.89 79.4252 1760.07 76.1316L1759.31 76.7824C1761.95 79.8691 1763.37 83.8864 1763.53 88.8754L1764.53 88.8434ZM1760.07 76.1316C1757.23 72.8241 1753.51 71.1719 1748.94 71.1719V72.1719C1753.23 72.1719 1756.67 73.7098 1759.31 76.7824L1760.07 76.1316ZM1822.34 100.09L1822.04 100.488L1822.04 100.49L1822.34 100.09ZM1811.85 95.9883L1811.74 96.4771L1811.74 96.4778L1811.85 95.9883ZM1800.91 92.5703L1800.68 93.0164L1800.69 93.0198L1800.91 92.5703ZM1795.15 87.834L1794.73 88.1114L1794.73 88.1163L1795.15 87.834ZM1798.52 70.793L1798.82 71.188L1798.82 71.1863L1798.52 70.793ZM1826.05 71.0859L1825.74 71.4715L1825.74 71.4746L1826.05 71.0859ZM1831.43 82.4629V82.9629H1831.93V82.4629H1831.43ZM1825.57 82.4629H1825.07V82.9629H1825.57V82.4629ZM1821.66 74.748L1821.35 75.139L1821.35 75.1409L1821.66 74.748ZM1802.62 74.2598L1802.91 74.6631L1802.91 74.6624L1802.62 74.2598ZM1802.03 87.0527L1801.73 87.4504L1801.74 87.4559L1802.03 87.0527ZM1812.63 91.0078L1812.51 91.4945L1812.51 91.4946L1812.63 91.0078ZM1824.15 94.8652L1823.91 95.3055L1823.92 95.3067L1824.15 94.8652ZM1826.3 117.473L1826 117.07L1826 117.072L1826.3 117.473ZM1797.25 117.033L1796.94 117.426L1796.94 117.429L1797.25 117.033ZM1791.53 105.705V105.205H1791.03V105.705H1791.53ZM1797.39 105.705L1797.89 105.672L1797.86 105.205H1797.39V105.705ZM1801.69 113.713L1801.4 114.117L1801.4 114.121L1801.69 113.713ZM1822.1 113.859L1821.81 113.453L1822.1 113.859ZM1826.36 107.072C1826.36 104.016 1825.11 101.541 1822.64 99.6898L1822.04 100.49C1824.26 102.154 1825.36 104.335 1825.36 107.072H1826.36ZM1822.65 99.6919C1820.25 97.8689 1816.67 96.4819 1811.95 95.4988L1811.74 96.4778C1816.4 97.4478 1819.82 98.7952 1822.04 100.488L1822.65 99.6919ZM1811.95 95.4995C1807.28 94.4941 1803.68 93.365 1801.13 92.1209L1800.69 93.0198C1803.35 94.3147 1807.04 95.4642 1811.74 96.4771L1811.95 95.4995ZM1801.13 92.1242C1798.62 90.8497 1796.77 89.3208 1795.56 87.5516L1794.73 88.1163C1796.06 90.0581 1798.06 91.6868 1800.68 93.0164L1801.13 92.1242ZM1795.56 87.5566C1794.39 85.7973 1793.79 83.6521 1793.79 81.0957H1792.79C1792.79 83.8128 1793.43 86.1597 1794.73 88.1113L1795.56 87.5566ZM1793.79 81.0957C1793.79 77.0937 1795.45 73.8015 1798.82 71.188L1798.21 70.3979C1794.61 73.1881 1792.79 76.7644 1792.79 81.0957H1793.79ZM1798.82 71.1863C1802.2 68.5356 1806.54 67.1914 1811.89 67.1914V66.1914C1806.37 66.1914 1801.8 67.5816 1798.21 70.3997L1798.82 71.1863ZM1811.89 67.1914C1817.7 67.1914 1822.3 68.6345 1825.74 71.4715L1826.37 70.7004C1822.71 67.678 1817.87 66.1914 1811.89 66.1914V67.1914ZM1825.74 71.4746C1829.2 74.2749 1830.93 77.9232 1830.93 82.4629H1831.93C1831.93 77.6276 1830.07 73.6912 1826.37 70.6972L1825.74 71.4746ZM1831.43 81.9629H1825.57V82.9629H1831.43V81.9629ZM1826.07 82.4629C1826.07 79.2049 1824.68 76.493 1821.97 74.3552L1821.35 75.1409C1823.84 77.1047 1825.07 79.5359 1825.07 82.4629H1826.07ZM1821.97 74.3571C1819.3 72.2225 1815.92 71.1719 1811.89 71.1719V72.1719C1815.74 72.1719 1818.88 73.172 1821.35 75.139L1821.97 74.3571ZM1811.89 71.1719C1807.98 71.1719 1804.77 72.0511 1802.32 73.8571L1802.91 74.6624C1805.15 73.0179 1808.13 72.1719 1811.89 72.1719V71.1719ZM1802.32 73.8564C1799.89 75.638 1798.65 77.9979 1798.65 80.9004H1799.65C1799.65 78.3341 1800.72 76.267 1802.91 74.6631L1802.32 73.8564ZM1798.65 80.9004C1798.65 83.6766 1799.67 85.8813 1801.73 87.4503L1802.33 86.6552C1800.55 85.2945 1799.65 83.3976 1799.65 80.9004H1798.65ZM1801.74 87.4559C1803.78 88.9525 1807.39 90.2885 1812.51 91.4945L1812.74 90.5211C1807.64 89.3183 1804.19 88.0176 1802.33 86.6495L1801.74 87.4559ZM1812.51 91.4946C1817.64 92.6959 1821.43 93.9698 1823.91 95.3055L1824.39 94.425C1821.79 93.0263 1817.9 91.7286 1812.74 90.521L1812.51 91.4946ZM1823.92 95.3067C1826.43 96.6446 1828.26 98.236 1829.44 100.068L1830.28 99.5261C1828.99 97.5166 1827.01 95.8203 1824.39 94.4237L1823.92 95.3067ZM1829.44 100.068C1830.62 101.893 1831.22 104.122 1831.22 106.779H1832.22C1832.22 103.968 1831.58 101.542 1830.28 99.5261L1829.44 100.068ZM1831.22 106.779C1831.22 111.079 1829.49 114.495 1826 117.07L1826.6 117.875C1830.34 115.112 1832.22 111.399 1832.22 106.779H1831.22ZM1826 117.072C1822.53 119.66 1817.95 120.977 1812.24 120.977V121.977C1818.11 121.977 1822.91 120.624 1826.6 117.874L1826 117.072ZM1812.24 120.977C1806.16 120.977 1801.28 119.516 1797.55 116.637L1796.94 117.429C1800.89 120.475 1806 121.977 1812.24 121.977V120.977ZM1797.56 116.64C1793.86 113.733 1792.03 110.098 1792.03 105.705H1791.03C1791.03 110.427 1793.02 114.344 1796.94 117.426L1797.56 116.64ZM1791.53 106.205H1797.39V105.205H1791.53V106.205ZM1796.89 105.738C1797.13 109.296 1798.63 112.104 1801.4 114.117L1801.98 113.309C1799.47 111.48 1798.11 108.95 1797.89 105.672L1796.89 105.738ZM1801.4 114.121C1804.18 116.086 1807.81 117.045 1812.24 117.045V116.045C1807.94 116.045 1804.54 115.116 1801.98 113.305L1801.4 114.121ZM1812.24 117.045C1816.38 117.045 1819.78 116.134 1822.39 114.266L1821.81 113.453C1819.41 115.166 1816.23 116.045 1812.24 116.045V117.045ZM1822.39 114.266C1825.01 112.396 1826.36 109.99 1826.36 107.072H1825.36C1825.36 109.623 1824.2 111.742 1821.81 113.453L1822.39 114.266Z" fill="black"/>
</g>
<defs>
<linearGradient id="paint0_linear" x1="13.0423" y1="50.0877" x2="85.9811" y2="122.967" gradientUnits="userSpaceOnUse">
<stop stop-color="#A11CF6"/>
<stop offset="1" stop-color="#680CEA"/>
</linearGradient>
<linearGradient id="paint1_linear" x1="-22.8246" y1="85.9926" x2="50.1155" y2="158.871" gradientUnits="userSpaceOnUse">
<stop stop-color="#A11CF6"/>
<stop offset="1" stop-color="#680CEA"/>
</linearGradient>
<linearGradient id="paint2_linear" x1="13.0504" y1="121.89" x2="85.9898" y2="194.769" gradientUnits="userSpaceOnUse">
<stop stop-color="#A11CF6"/>
<stop offset="1" stop-color="#680CEA"/>
</linearGradient>
<linearGradient id="paint3_linear" x1="48.9185" y1="85.9852" x2="121.858" y2="158.863" gradientUnits="userSpaceOnUse">
<stop stop-color="#A11CF6"/>
<stop offset="1" stop-color="#680CEA"/>
</linearGradient>
<linearGradient id="paint4_linear" x1="59.7542" y1="9.02403" x2="59.7533" y2="112.176" gradientUnits="userSpaceOnUse">
<stop stop-color="#A11CF6"/>
<stop offset="1" stop-color="#680CEA"/>
</linearGradient>
<linearGradient id="paint5_linear" x1="9.02496" y1="9.0297" x2="9.02541" y2="112.182" gradientUnits="userSpaceOnUse">
<stop stop-color="#A11CF6"/>
<stop offset="1" stop-color="#680CEA"/>
</linearGradient>
<linearGradient id="paint6_linear" x1="9.03014" y1="59.8017" x2="9.03014" y2="162.954" gradientUnits="userSpaceOnUse">
<stop stop-color="#A11CF6"/>
<stop offset="1" stop-color="#680CEA"/>
</linearGradient>
<linearGradient id="paint7_linear" x1="59.7603" y1="59.7969" x2="59.7608" y2="162.948" gradientUnits="userSpaceOnUse">
<stop stop-color="#A11CF6"/>
<stop offset="1" stop-color="#680CEA"/>
</linearGradient>
<linearGradient id="paint8_linear" x1="40.8344" y1="63.9946" x2="85.9596" y2="109.082" gradientUnits="userSpaceOnUse">
<stop stop-color="#A11CF6"/>
<stop offset="1" stop-color="#680CEA"/>
</linearGradient>
<linearGradient id="paint9_linear" x1="18.8622" y1="85.9923" x2="63.9874" y2="131.08" gradientUnits="userSpaceOnUse">
<stop stop-color="#A11CF6"/>
<stop offset="1" stop-color="#680CEA"/>
</linearGradient>
<linearGradient id="paint10_linear" x1="40.8414" y1="107.983" x2="85.9666" y2="153.07" gradientUnits="userSpaceOnUse">
<stop stop-color="#A11CF6"/>
<stop offset="1" stop-color="#680CEA"/>
</linearGradient>
<linearGradient id="paint11_linear" x1="62.8133" y1="85.9851" x2="107.939" y2="131.073" gradientUnits="userSpaceOnUse">
<stop stop-color="#A11CF6"/>
<stop offset="1" stop-color="#680CEA"/>
</linearGradient>
<linearGradient id="paint12_linear" x1="69.5803" y1="38.5257" x2="69.5803" y2="102.342" gradientUnits="userSpaceOnUse">
<stop stop-color="#A11CF6"/>
<stop offset="1" stop-color="#680CEA"/>
</linearGradient>
<linearGradient id="paint13_linear" x1="38.5019" y1="38.5309" x2="38.5019" y2="102.348" gradientUnits="userSpaceOnUse">
<stop stop-color="#A11CF6"/>
<stop offset="1" stop-color="#680CEA"/>
</linearGradient>
<linearGradient id="paint14_linear" x1="38.507" y1="69.635" x2="38.507" y2="133.452" gradientUnits="userSpaceOnUse">
<stop stop-color="#A11CF6"/>
<stop offset="1" stop-color="#680CEA"/>
</linearGradient>
<linearGradient id="paint15_linear" x1="69.5852" y1="69.63" x2="69.5852" y2="133.447" gradientUnits="userSpaceOnUse">
<stop stop-color="#A11CF6"/>
<stop offset="1" stop-color="#680CEA"/>
</linearGradient>
<linearGradient id="paint16_linear" x1="68.6937" y1="77.9359" x2="85.9363" y2="95.1641" gradientUnits="userSpaceOnUse">
<stop stop-color="#A11CF6"/>
<stop offset="1" stop-color="#680CEA"/>
</linearGradient>
<linearGradient id="paint17_linear" x1="60.6512" y1="85.9922" x2="77.8938" y2="103.22" gradientUnits="userSpaceOnUse">
<stop stop-color="#A11CF6"/>
<stop offset="1" stop-color="#680CEA"/>
</linearGradient>
<linearGradient id="paint18_linear" x1="68.7007" y1="94.0413" x2="85.9434" y2="111.27" gradientUnits="userSpaceOnUse">
<stop stop-color="#A11CF6"/>
<stop offset="1" stop-color="#680CEA"/>
</linearGradient>
<linearGradient id="paint19_linear" x1="76.743" y1="85.985" x2="93.9856" y2="103.213" gradientUnits="userSpaceOnUse">
<stop stop-color="#A11CF6"/>
<stop offset="1" stop-color="#680CEA"/>
</linearGradient>
<linearGradient id="paint20_linear" x1="79.4298" y1="68.0995" x2="79.4298" y2="92.4843" gradientUnits="userSpaceOnUse">
<stop stop-color="#A11CF6"/>
<stop offset="1" stop-color="#680CEA"/>
</linearGradient>
<linearGradient id="paint21_linear" x1="68.0511" y1="68.1047" x2="68.0511" y2="92.4895" gradientUnits="userSpaceOnUse">
<stop stop-color="#A11CF6"/>
<stop offset="1" stop-color="#680CEA"/>
</linearGradient>
<linearGradient id="paint22_linear" x1="68.0563" y1="79.4929" x2="68.0563" y2="103.878" gradientUnits="userSpaceOnUse">
<stop stop-color="#A11CF6"/>
<stop offset="1" stop-color="#680CEA"/>
</linearGradient>
<linearGradient id="paint23_linear" x1="79.4349" y1="79.4878" x2="79.4349" y2="103.873" gradientUnits="userSpaceOnUse">
<stop stop-color="#A11CF6"/>
<stop offset="1" stop-color="#680CEA"/>
</linearGradient>
<clipPath id="clip0">
<path d="M0 0H1848V172H0V0Z" fill="white"/>
</clipPath>
</defs>
</svg>
